<svg width="3280" height="1584" viewBox="0 0 3280 1584" fill="none" xmlns="http://www.w3.org/2000/svg">
<g clip-path="url(#clip0_2320_882)">
<path opacity="0.4" d="M339.598 781.895C264.734 781.895 200.247 765.217 146.138 731.862C92.7694 697.765 51.6314 652.18 22.7235 595.106C-6.18432 538.031 -20.6382 474.656 -20.6382 404.981C-20.6382 335.306 -5.81371 271.931 23.8354 214.856C53.4844 157.782 95.3637 112.567 149.473 79.2118C204.324 45.1154 268.44 28.0672 341.822 28.0672C421.133 28.0672 489.696 47.7097 547.512 86.9947C606.069 125.539 649.06 175.571 676.485 237.093H585.315C563.078 197.808 531.946 166.677 491.92 143.699C452.635 120.721 404.826 109.232 348.493 109.232C289.195 109.232 238.05 122.574 195.059 149.258C152.068 175.201 119.083 210.409 96.105 254.883C73.8682 299.356 62.7498 349.389 62.7498 404.981C62.7498 459.832 73.8682 509.865 96.105 555.079C118.342 599.553 150.585 635.132 192.835 661.816C235.826 687.759 286.971 700.73 346.269 700.73C390.743 700.73 432.622 691.094 471.907 671.823C511.933 652.551 544.176 624.755 568.637 588.435C593.839 552.114 606.44 508.382 606.44 457.237H337.374V381.632H683.157V773H606.44V642.915C590.874 666.634 570.861 689.241 546.4 710.737C521.94 731.491 492.291 748.54 457.453 761.882C423.357 775.224 384.072 781.895 339.598 781.895ZM796.182 773V36.9619H1148.64C1224.24 36.9619 1284.28 57.7162 1328.75 99.225C1373.97 140.734 1396.58 196.696 1396.58 267.113C1396.58 314.551 1387.31 352.354 1368.78 380.52C1350.99 408.687 1328.38 430.183 1300.96 445.007C1273.53 459.09 1246.11 469.468 1218.68 476.139L1412.14 773H1313.19L1135.29 490.593H879.57V773H796.182ZM879.57 411.652H1134.18C1160.87 411.652 1187.92 407.575 1215.35 399.422C1242.77 391.268 1265.75 376.814 1284.28 356.06C1303.55 334.564 1313.19 304.915 1313.19 267.113C1313.19 220.416 1297.25 183.725 1265.38 157.041C1233.51 129.615 1191.26 115.903 1138.63 115.903H879.57V411.652ZM1419.86 773L1732.29 36.9619H1836.8L2149.23 773H2056.95L1966.89 559.527H1602.21L1512.15 773H1419.86ZM1634.45 482.81H1934.65L1784.55 123.685L1634.45 482.81Z" fill="white" fill-opacity="0.32"/>
<path opacity="0.4" d="M474.059 1509V772.962H805.387C883.957 772.962 945.85 794.457 991.065 837.449C1036.28 879.699 1058.89 937.144 1058.89 1009.78C1058.89 1082.42 1036.28 1140.24 991.065 1183.23C945.85 1225.48 883.957 1246.61 805.387 1246.61H557.447V1509H474.059ZM557.447 1168.78H799.828C857.644 1168.78 901.376 1154.69 931.025 1126.53C960.674 1098.36 975.499 1059.45 975.499 1009.78C975.499 960.863 960.674 922.319 931.025 894.152C901.376 865.986 857.644 851.903 799.828 851.903H557.447V1168.78ZM1138.86 1509V772.962H1222.25V1099.84H1650.31V772.962H1733.7V1509H1650.31V1181.01H1222.25V1509H1138.86ZM1880.75 1509V772.962H1964.14V1509H1880.75ZM2420.34 1517.89C2346.95 1517.89 2283.58 1501.22 2230.21 1467.86C2176.84 1433.77 2135.7 1388.18 2106.8 1331.11C2078.63 1274.03 2064.55 1210.66 2064.55 1140.98C2064.55 1071.31 2078.63 1007.93 2106.8 950.856C2135.7 893.782 2176.84 848.567 2230.21 815.212C2283.58 781.115 2346.95 764.067 2420.34 764.067C2475.93 764.067 2525.96 774.074 2570.43 794.087C2614.91 813.359 2652.71 840.043 2683.84 874.139C2714.97 908.236 2738.32 947.891 2753.89 993.106H2666.05C2647.52 947.891 2618.24 911.942 2578.22 885.258C2538.19 858.574 2487.79 845.232 2427.01 845.232C2367.71 845.232 2316.93 858.574 2274.68 885.258C2233.18 911.201 2201.67 946.409 2180.18 990.883C2158.68 1035.36 2147.93 1085.39 2147.93 1140.98C2147.93 1195.83 2158.68 1245.86 2180.18 1291.08C2201.67 1335.55 2233.18 1371.13 2274.68 1397.82C2316.93 1423.76 2367.71 1436.73 2427.01 1436.73C2487.79 1436.73 2538.19 1423.39 2578.22 1396.7C2618.24 1370.02 2647.52 1334.07 2666.05 1288.86H2753.89C2738.32 1333.33 2714.97 1372.98 2683.84 1407.82C2652.71 1441.92 2614.91 1468.97 2570.43 1488.99C2525.96 1508.26 2475.93 1517.89 2420.34 1517.89ZM2758.81 1509L3071.24 772.962H3175.75L3488.18 1509H3395.9L3305.84 1295.53H2941.15L2851.09 1509H2758.81ZM2973.4 1218.81H3273.59L3123.5 859.685L2973.4 1218.81Z" fill="white" fill-opacity="0.32"/>
<rect x="154.906" y="1014.72" width="12.3997" height="276" fill="#D9D9D9"/>
<path d="M239.761 1172.29V1227.27C239.761 1231.51 238.422 1235.04 235.743 1237.85C233.13 1240.6 229.472 1241.97 224.768 1241.97C219.672 1241.97 215.72 1240.4 212.911 1237.26C210.167 1234.13 208.795 1229.82 208.795 1224.33H210.755C210.755 1228.9 211.866 1232.69 214.087 1235.7C216.308 1238.7 219.868 1240.2 224.768 1240.2C229.406 1240.2 232.738 1238.93 234.763 1236.38C236.788 1233.77 237.801 1230.73 237.801 1227.27V1172.29H239.761ZM280.308 1241.97C275.409 1241.97 270.999 1240.89 267.079 1238.73C263.16 1236.51 260.057 1233.38 257.77 1229.33C255.549 1225.21 254.438 1220.38 254.438 1214.82C254.438 1209.27 255.549 1204.47 257.77 1200.42C260.057 1196.3 263.16 1193.17 267.079 1191.01C270.999 1188.79 275.409 1187.68 280.308 1187.68C285.208 1187.68 289.618 1188.79 293.537 1191.01C297.457 1193.17 300.528 1196.3 302.749 1200.42C304.97 1204.47 306.08 1209.27 306.08 1214.82C306.08 1220.38 304.97 1225.21 302.749 1229.33C300.528 1233.38 297.457 1236.51 293.537 1238.73C289.618 1240.89 285.208 1241.97 280.308 1241.97ZM280.308 1240.2C284.555 1240.2 288.474 1239.29 292.068 1237.46C295.661 1235.57 298.568 1232.72 300.789 1228.93C303.01 1225.15 304.121 1220.44 304.121 1214.82C304.121 1209.21 303.01 1204.5 300.789 1200.71C298.568 1196.92 295.661 1194.11 292.068 1192.28C288.474 1190.39 284.555 1189.44 280.308 1189.44C276.062 1189.44 272.11 1190.39 268.451 1192.28C264.858 1194.11 261.951 1196.96 259.73 1200.81C257.509 1204.6 256.398 1209.27 256.398 1214.82C256.398 1220.38 257.509 1225.08 259.73 1228.93C261.951 1232.72 264.858 1235.57 268.451 1237.46C272.11 1239.29 276.062 1240.2 280.308 1240.2ZM322.294 1174.84C321.576 1174.84 320.955 1174.61 320.433 1174.16C319.975 1173.63 319.747 1172.98 319.747 1172.2C319.747 1171.41 319.975 1170.79 320.433 1170.33C320.955 1169.81 321.576 1169.55 322.294 1169.55C323.013 1169.55 323.601 1169.81 324.058 1170.33C324.581 1170.79 324.842 1171.41 324.842 1172.2C324.842 1172.98 324.581 1173.63 324.058 1174.16C323.601 1174.61 323.013 1174.84 322.294 1174.84ZM323.274 1188.37V1241.28H321.315V1188.37H323.274ZM363.689 1187.19C369.896 1187.19 374.991 1189.12 378.976 1192.97C382.961 1196.83 384.954 1202.64 384.954 1210.41V1241.28H383.092V1210.22C383.092 1203.29 381.361 1198.03 377.898 1194.44C374.436 1190.78 369.7 1188.95 363.689 1188.95C357.418 1188.95 352.388 1191.01 348.599 1195.13C344.81 1199.18 342.915 1205.19 342.915 1213.16V1241.28H340.955V1188.37H342.915V1202.28C344.156 1197.38 346.639 1193.66 350.362 1191.11C354.086 1188.5 358.528 1187.19 363.689 1187.19ZM454.95 1241.97C450.05 1241.97 445.64 1240.89 441.721 1238.73C437.801 1236.51 434.698 1233.38 432.411 1229.33C430.19 1225.21 429.08 1220.38 429.08 1214.82C429.08 1209.27 430.19 1204.47 432.411 1200.42C434.698 1196.3 437.801 1193.17 441.721 1191.01C445.64 1188.79 450.05 1187.68 454.95 1187.68C459.849 1187.68 464.259 1188.79 468.179 1191.01C472.098 1193.17 475.169 1196.3 477.39 1200.42C479.611 1204.47 480.722 1209.27 480.722 1214.82C480.722 1220.38 479.611 1225.21 477.39 1229.33C475.169 1233.38 472.098 1236.51 468.179 1238.73C464.259 1240.89 459.849 1241.97 454.95 1241.97ZM454.95 1240.2C459.196 1240.2 463.116 1239.29 466.709 1237.46C470.302 1235.57 473.209 1232.72 475.43 1228.93C477.651 1225.15 478.762 1220.44 478.762 1214.82C478.762 1209.21 477.651 1204.5 475.43 1200.71C473.209 1196.92 470.302 1194.11 466.709 1192.28C463.116 1190.39 459.196 1189.44 454.95 1189.44C450.703 1189.44 446.751 1190.39 443.093 1192.28C439.499 1194.11 436.592 1196.96 434.371 1200.81C432.15 1204.6 431.039 1209.27 431.039 1214.82C431.039 1220.38 432.15 1225.08 434.371 1228.93C436.592 1232.72 439.499 1235.57 443.093 1237.46C446.751 1239.29 450.703 1240.2 454.95 1240.2ZM539.464 1188.37V1241.28H537.505V1226.88C536.329 1231.91 533.846 1235.73 530.057 1238.34C526.333 1240.95 521.891 1242.26 516.73 1242.26C510.524 1242.26 505.428 1240.33 501.443 1236.48C497.458 1232.63 495.466 1226.81 495.466 1219.04V1188.37H497.328V1219.23C497.328 1226.16 499.059 1231.45 502.521 1235.11C505.984 1238.7 510.72 1240.5 516.73 1240.5C523.002 1240.5 528.032 1238.47 531.821 1234.42C535.61 1230.31 537.505 1224.26 537.505 1216.29V1188.37H539.464ZM559.088 1201.2C561.179 1191.86 568.136 1187.19 579.961 1187.19V1189.35H579.079C573.526 1189.35 568.79 1190.98 564.87 1194.24C561.015 1197.45 559.088 1202.64 559.088 1209.83V1241.28H557.128V1188.37H559.088V1201.2ZM710.958 1172.78L679.405 1241.28H671.761L664.902 1183.07L636.974 1241.28L629.429 1241.38L622.569 1172.78H630.017L635.014 1232.46L663.138 1172.78H670.879L677.249 1232.66L703.511 1172.78H710.958ZM745.361 1186.8C750.718 1186.8 755.03 1188.27 758.296 1191.21C761.563 1194.15 763.196 1198.49 763.196 1204.24C763.196 1206.33 763.033 1208.23 762.706 1209.92L757.121 1241.28H750.359L755.749 1210.71C756.01 1209.21 756.141 1207.6 756.141 1205.91C756.141 1201.59 754.965 1198.33 752.613 1196.11C750.261 1193.89 746.962 1192.77 742.716 1192.77C737.555 1192.77 733.145 1194.41 729.487 1197.67C725.828 1200.94 723.444 1205.74 722.333 1212.08V1211.98L717.14 1241.28H710.28L723.117 1168.77H729.977L724.979 1196.89C727.265 1193.62 730.205 1191.14 733.798 1189.44C737.391 1187.68 741.246 1186.8 745.361 1186.8ZM774.839 1214.43C775.819 1208.94 777.779 1204.14 780.718 1200.03C783.658 1195.85 787.251 1192.64 791.498 1190.42C795.809 1188.14 800.415 1186.99 805.315 1186.99C810.41 1186.99 814.591 1188.17 817.858 1190.52C821.124 1192.87 823.247 1195.88 824.227 1199.54L826.285 1187.78H833.145L823.737 1241.28H816.878L818.936 1229.42C816.714 1233.08 813.513 1236.12 809.332 1238.54C805.217 1240.89 800.611 1242.07 795.515 1242.07C791.269 1242.07 787.545 1241.18 784.344 1239.42C781.143 1237.66 778.661 1235.17 776.897 1231.97C775.133 1228.71 774.251 1224.88 774.251 1220.51C774.251 1218.61 774.447 1216.59 774.839 1214.43ZM821.581 1214.53C821.908 1212.7 822.071 1211.07 822.071 1209.63C822.071 1204.53 820.536 1200.48 817.466 1197.48C814.395 1194.47 810.41 1192.97 805.511 1192.97C801.722 1192.97 798.161 1193.82 794.829 1195.52C791.563 1197.22 788.787 1199.7 786.5 1202.97C784.214 1206.17 782.678 1209.99 781.894 1214.43C781.568 1216.39 781.404 1218.06 781.404 1219.43C781.404 1224.59 782.907 1228.67 785.912 1231.68C788.983 1234.62 792.968 1236.09 797.867 1236.09C801.526 1236.09 805.021 1235.21 808.352 1233.44C811.749 1231.68 814.591 1229.16 816.878 1225.9C819.23 1222.63 820.797 1218.84 821.581 1214.53ZM851.744 1226.78C851.548 1227.95 851.45 1228.97 851.45 1229.82C851.45 1231.91 852.005 1233.38 853.116 1234.23C854.292 1235.01 856.186 1235.4 858.799 1235.4H865.071L863.993 1241.28H856.644C852.593 1241.28 849.555 1240.5 847.53 1238.93C845.505 1237.36 844.492 1234.78 844.492 1231.19C844.492 1229.75 844.623 1228.28 844.884 1226.78L850.764 1193.56H843.317L844.394 1187.78H851.842L854.194 1174.35H861.053L858.701 1187.78H873.498L872.42 1193.56H857.623L851.744 1226.78ZM894.12 1242.07C888.698 1242.07 884.288 1240.82 880.891 1238.34C877.494 1235.79 875.796 1232.33 875.796 1227.95C875.796 1227.17 875.828 1226.58 875.894 1226.19H882.557C882.296 1229.33 883.211 1231.84 885.301 1233.74C887.392 1235.63 890.462 1236.58 894.512 1236.58C898.628 1236.58 901.927 1235.73 904.41 1234.03C906.892 1232.27 908.133 1229.95 908.133 1227.07C908.133 1225.37 907.611 1223.94 906.565 1222.76C905.52 1221.58 904.214 1220.64 902.646 1219.92C901.143 1219.13 899.02 1218.25 896.276 1217.27C892.879 1216.03 890.135 1214.89 888.045 1213.84C886.02 1212.73 884.256 1211.23 882.753 1209.34C881.316 1207.38 880.597 1204.93 880.597 1201.99C880.597 1199.05 881.447 1196.43 883.145 1194.15C884.844 1191.86 887.163 1190.1 890.103 1188.86C893.108 1187.61 896.505 1186.99 900.294 1186.99C905.586 1186.99 909.897 1188.3 913.229 1190.91C916.626 1193.53 918.325 1196.99 918.325 1201.3C918.325 1202.21 918.292 1202.9 918.227 1203.36H911.759C911.824 1203.1 911.857 1202.67 911.857 1202.08C911.857 1199.21 910.714 1196.89 908.427 1195.13C906.206 1193.36 903.332 1192.48 899.804 1192.48C896.276 1192.48 893.336 1193.33 890.985 1195.03C888.698 1196.66 887.555 1198.88 887.555 1201.69C887.555 1203.59 888.11 1205.19 889.221 1206.49C890.331 1207.74 891.703 1208.75 893.336 1209.53C894.97 1210.32 897.158 1211.23 899.902 1212.28C903.168 1213.52 905.782 1214.66 907.741 1215.71C909.767 1216.75 911.465 1218.19 912.837 1220.02C914.209 1221.85 914.895 1224.13 914.895 1226.88C914.895 1231.51 912.968 1235.21 909.113 1237.95C905.259 1240.69 900.261 1242.07 894.12 1242.07ZM969.846 1225.01H938.586L929.767 1241.28H922.515L959.458 1173.67H967.2L980.135 1241.28H972.883L969.846 1225.01ZM968.768 1219.53L961.81 1182.19L941.526 1219.53H968.768ZM1006.33 1199.54C1008.55 1195.94 1011.72 1192.97 1015.84 1190.62C1020.02 1188.2 1024.62 1186.99 1029.65 1186.99C1036.12 1186.99 1041.28 1188.92 1045.14 1192.77C1049.06 1196.56 1051.02 1201.76 1051.02 1208.36C1051.02 1210.25 1050.82 1212.28 1050.43 1214.43C1049.45 1219.92 1047.49 1224.75 1044.55 1228.93C1041.61 1233.12 1037.98 1236.35 1033.67 1238.64C1029.43 1240.92 1024.85 1242.07 1019.95 1242.07C1014.92 1242.07 1010.78 1240.89 1007.51 1238.54C1004.24 1236.12 1002.05 1233.12 1000.94 1229.52L994.476 1266.56H987.616L1001.53 1187.78H1008.39L1006.33 1199.54ZM1043.47 1214.43C1043.8 1212.47 1043.96 1210.81 1043.96 1209.43C1043.96 1204.27 1042.43 1200.26 1039.36 1197.38C1036.35 1194.44 1032.37 1192.97 1027.4 1192.97C1023.74 1192.97 1020.25 1193.85 1016.92 1195.62C1013.58 1197.38 1010.74 1199.9 1008.39 1203.16C1006.04 1206.43 1004.47 1210.22 1003.69 1214.53C1003.36 1216.36 1003.2 1217.99 1003.2 1219.43C1003.2 1224.52 1004.73 1228.57 1007.8 1231.58C1010.87 1234.59 1014.86 1236.09 1019.76 1236.09C1023.55 1236.09 1027.07 1235.24 1030.34 1233.54C1033.67 1231.78 1036.48 1229.26 1038.77 1225.99C1041.12 1222.66 1042.69 1218.81 1043.47 1214.43ZM1073.44 1199.54C1075.66 1195.94 1078.83 1192.97 1082.94 1190.62C1087.12 1188.2 1091.73 1186.99 1096.76 1186.99C1103.23 1186.99 1108.39 1188.92 1112.24 1192.77C1116.16 1196.56 1118.12 1201.76 1118.12 1208.36C1118.12 1210.25 1117.93 1212.28 1117.54 1214.43C1116.56 1219.92 1114.6 1224.75 1111.66 1228.93C1108.72 1233.12 1105.09 1236.35 1100.78 1238.64C1096.53 1240.92 1091.96 1242.07 1087.06 1242.07C1082.03 1242.07 1077.88 1240.89 1074.61 1238.54C1071.35 1236.12 1069.16 1233.12 1068.05 1229.52L1061.58 1266.56H1054.72L1068.64 1187.78H1075.5L1073.44 1199.54ZM1110.58 1214.43C1110.9 1212.47 1111.07 1210.81 1111.07 1209.43C1111.07 1204.27 1109.53 1200.26 1106.46 1197.38C1103.46 1194.44 1099.47 1192.97 1094.51 1192.97C1090.85 1192.97 1087.35 1193.85 1084.02 1195.62C1080.69 1197.38 1077.85 1199.9 1075.5 1203.16C1073.14 1206.43 1071.58 1210.22 1070.79 1214.53C1070.47 1216.36 1070.3 1217.99 1070.3 1219.43C1070.3 1224.52 1071.84 1228.57 1074.91 1231.58C1077.98 1234.59 1081.96 1236.09 1086.86 1236.09C1090.65 1236.09 1094.18 1235.24 1097.45 1233.54C1100.78 1231.78 1103.59 1229.26 1105.87 1225.99C1108.23 1222.66 1109.79 1218.81 1110.58 1214.43ZM1157.78 1214.53C1158.76 1208.98 1160.72 1204.14 1163.66 1200.03C1166.67 1195.85 1170.33 1192.64 1174.64 1190.42C1178.95 1188.14 1183.62 1186.99 1188.65 1186.99C1195.25 1186.99 1200.38 1188.63 1204.04 1191.89C1207.76 1195.16 1209.75 1199.6 1210.01 1205.22H1202.66C1202.47 1201.37 1201.03 1198.36 1198.35 1196.2C1195.74 1193.98 1192.18 1192.87 1187.67 1192.87C1182.12 1192.87 1177.22 1194.77 1172.97 1198.56C1168.79 1202.28 1166.08 1207.6 1164.84 1214.53C1164.51 1216.16 1164.35 1218.02 1164.35 1220.11C1164.35 1225.34 1165.75 1229.36 1168.56 1232.17C1171.44 1234.91 1175.23 1236.28 1179.93 1236.28C1184.5 1236.28 1188.49 1235.21 1191.88 1233.05C1195.28 1230.83 1197.8 1227.76 1199.43 1223.84H1206.78C1204.56 1229.33 1201 1233.74 1196.1 1237.07C1191.2 1240.4 1185.48 1242.07 1178.95 1242.07C1172.35 1242.07 1167.06 1240.17 1163.07 1236.38C1159.16 1232.59 1157.2 1227.4 1157.2 1220.8C1157.2 1218.78 1157.39 1216.69 1157.78 1214.53ZM1240.81 1242.07C1236.37 1242.07 1232.45 1241.18 1229.05 1239.42C1225.65 1237.59 1223.01 1235.04 1221.11 1231.78C1219.28 1228.44 1218.37 1224.56 1218.37 1220.11C1218.37 1214.1 1219.74 1208.58 1222.49 1203.55C1225.23 1198.46 1229.05 1194.44 1233.95 1191.5C1238.85 1188.5 1244.31 1186.99 1250.32 1186.99C1254.76 1186.99 1258.68 1187.91 1262.08 1189.74C1265.47 1191.5 1268.12 1194.05 1270.01 1197.38C1271.91 1200.65 1272.85 1204.5 1272.85 1208.94C1272.85 1215.02 1271.45 1220.57 1268.64 1225.6C1265.83 1230.63 1261.98 1234.65 1257.08 1237.66C1252.24 1240.6 1246.82 1242.07 1240.81 1242.07ZM1241.59 1236.28C1246.23 1236.28 1250.38 1235.04 1254.04 1232.56C1257.76 1230.08 1260.64 1226.78 1262.66 1222.66C1264.75 1218.55 1265.8 1214.1 1265.8 1209.34C1265.8 1203.98 1264.23 1199.9 1261.1 1197.09C1258.02 1194.28 1254.1 1192.87 1249.34 1192.87C1244.7 1192.87 1240.55 1194.11 1236.89 1196.6C1233.3 1199.08 1230.49 1202.38 1228.46 1206.49C1226.44 1210.61 1225.43 1215.05 1225.43 1219.82C1225.43 1225.11 1226.96 1229.2 1230.03 1232.07C1233.1 1234.88 1236.96 1236.28 1241.59 1236.28ZM1354.54 1186.8C1359.9 1186.8 1364.18 1188.27 1367.38 1191.21C1370.64 1194.15 1372.28 1198.46 1372.28 1204.14C1372.28 1205.91 1372.08 1207.83 1371.69 1209.92L1366.1 1241.28H1359.34L1364.83 1210.71C1365.16 1208.75 1365.32 1207.11 1365.32 1205.81C1365.32 1201.56 1364.18 1198.33 1361.89 1196.11C1359.6 1193.89 1356.37 1192.77 1352.19 1192.77C1347.55 1192.77 1343.47 1194.24 1339.94 1197.18C1336.48 1200.12 1334.06 1204.37 1332.69 1209.92L1327.01 1241.28H1320.24L1325.73 1210.71C1326.06 1208.75 1326.22 1207.11 1326.22 1205.81C1326.22 1201.56 1325.08 1198.33 1322.79 1196.11C1320.5 1193.89 1317.3 1192.77 1313.19 1192.77C1308.22 1192.77 1303.94 1194.41 1300.35 1197.67C1296.76 1200.88 1294.37 1205.51 1293.2 1211.59L1288 1241.28H1281.14L1290.55 1187.78H1297.41L1295.75 1197.09C1297.97 1193.75 1300.81 1191.21 1304.27 1189.44C1307.8 1187.68 1311.52 1186.8 1315.44 1186.8C1320.08 1186.8 1323.93 1187.91 1327.01 1190.13C1330.08 1192.35 1332 1195.62 1332.79 1199.93C1334.94 1195.68 1337.98 1192.45 1341.9 1190.23C1345.82 1187.94 1350.03 1186.8 1354.54 1186.8ZM1455.71 1186.8C1461.07 1186.8 1465.35 1188.27 1468.55 1191.21C1471.82 1194.15 1473.45 1198.46 1473.45 1204.14C1473.45 1205.91 1473.26 1207.83 1472.86 1209.92L1467.28 1241.28H1460.52L1466 1210.71C1466.33 1208.75 1466.49 1207.11 1466.49 1205.81C1466.49 1201.56 1465.35 1198.33 1463.06 1196.11C1460.78 1193.89 1457.54 1192.77 1453.36 1192.77C1448.72 1192.77 1444.64 1194.24 1441.11 1197.18C1437.65 1200.12 1435.23 1204.37 1433.86 1209.92L1428.18 1241.28H1421.42L1426.9 1210.71C1427.23 1208.75 1427.39 1207.11 1427.39 1205.81C1427.39 1201.56 1426.25 1198.33 1423.96 1196.11C1421.68 1193.89 1418.48 1192.77 1414.36 1192.77C1409.4 1192.77 1405.12 1194.41 1401.52 1197.67C1397.93 1200.88 1395.55 1205.51 1394.37 1211.59L1389.18 1241.28H1382.32L1391.73 1187.78H1398.58L1396.92 1197.09C1399.14 1193.75 1401.98 1191.21 1405.44 1189.44C1408.97 1187.68 1412.7 1186.8 1416.62 1186.8C1421.25 1186.8 1425.11 1187.91 1428.18 1190.13C1431.25 1192.35 1433.18 1195.62 1433.96 1199.93C1436.12 1195.68 1439.15 1192.45 1443.07 1190.23C1446.99 1187.94 1451.21 1186.8 1455.71 1186.8ZM1539.25 1187.78L1529.84 1241.28H1522.98L1524.65 1231.87C1522.43 1235.21 1519.55 1237.75 1516.03 1239.52C1512.5 1241.28 1508.71 1242.16 1504.66 1242.16C1499.17 1242.16 1494.76 1240.69 1491.43 1237.75C1488.1 1234.75 1486.43 1230.4 1486.43 1224.72C1486.43 1222.63 1486.59 1220.74 1486.92 1219.04L1492.41 1187.78H1499.17L1493.78 1218.25C1493.52 1219.76 1493.39 1221.32 1493.39 1222.96C1493.39 1227.27 1494.56 1230.57 1496.92 1232.85C1499.33 1235.08 1502.67 1236.19 1506.91 1236.19C1511.88 1236.19 1516.16 1234.68 1519.75 1231.68C1523.34 1228.61 1525.76 1224.13 1527 1218.25L1532.39 1187.78H1539.25ZM1581.27 1186.8C1586.76 1186.8 1591.13 1188.3 1594.4 1191.31C1597.73 1194.24 1599.4 1198.56 1599.4 1204.24C1599.4 1206.33 1599.24 1208.23 1598.91 1209.92L1593.32 1241.28H1586.56L1591.95 1210.71C1592.21 1209.21 1592.34 1207.6 1592.34 1205.91C1592.34 1201.59 1591.17 1198.33 1588.82 1196.11C1586.46 1193.89 1583.16 1192.77 1578.92 1192.77C1573.76 1192.77 1569.35 1194.41 1565.69 1197.67C1562.03 1200.94 1559.65 1205.74 1558.54 1212.08V1211.79L1553.34 1241.28H1546.48L1555.89 1187.78H1562.75L1561.08 1196.99C1563.37 1193.72 1566.28 1191.21 1569.8 1189.44C1573.33 1187.68 1577.15 1186.8 1581.27 1186.8ZM1624.17 1177.68C1622.93 1177.68 1621.92 1177.32 1621.13 1176.61C1620.35 1175.82 1619.96 1174.81 1619.96 1173.57C1619.96 1171.87 1620.55 1170.47 1621.72 1169.35C1622.9 1168.18 1624.3 1167.59 1625.94 1167.59C1627.18 1167.59 1628.16 1167.95 1628.88 1168.67C1629.66 1169.39 1630.05 1170.33 1630.05 1171.51C1630.05 1173.21 1629.46 1174.68 1628.29 1175.92C1627.11 1177.1 1625.74 1177.68 1624.17 1177.68ZM1625.74 1187.78L1616.33 1241.28H1609.47L1618.88 1187.78H1625.74ZM1644.21 1226.78C1644.02 1227.95 1643.92 1228.97 1643.92 1229.82C1643.92 1231.91 1644.47 1233.38 1645.59 1234.23C1646.76 1235.01 1648.66 1235.4 1651.27 1235.4H1657.54L1656.46 1241.28H1649.11C1645.06 1241.28 1642.02 1240.5 1640 1238.93C1637.97 1237.36 1636.96 1234.78 1636.96 1231.19C1636.96 1229.75 1637.09 1228.28 1637.35 1226.78L1643.23 1193.56H1635.79L1636.86 1187.78H1644.31L1646.66 1174.35H1653.52L1651.17 1187.78H1665.97L1664.89 1193.56H1650.09L1644.21 1226.78ZM1679.44 1187.78L1689.53 1233.15L1715.11 1187.78H1722.26L1676.69 1266.47H1669.44L1684.34 1240.89L1671.79 1187.78H1679.44Z" fill="white"/>
<path d="M247.894 1046.47V1048.24H216.145V1080.09H244.955V1081.85H216.145V1115.46H214.185V1046.47H247.894ZM284.519 1116.15C279.619 1116.15 275.21 1115.07 271.29 1112.91C267.37 1110.69 264.267 1107.56 261.981 1103.51C259.76 1099.39 258.649 1094.56 258.649 1089C258.649 1083.45 259.76 1078.65 261.981 1074.6C264.267 1070.48 267.37 1067.35 271.29 1065.19C275.21 1062.97 279.619 1061.86 284.519 1061.86C289.419 1061.86 293.828 1062.97 297.748 1065.19C301.668 1067.35 304.738 1070.48 306.959 1074.6C309.181 1078.65 310.291 1083.45 310.291 1089C310.291 1094.56 309.181 1099.39 306.959 1103.51C304.738 1107.56 301.668 1110.69 297.748 1112.91C293.828 1115.07 289.419 1116.15 284.519 1116.15ZM284.519 1114.38C288.765 1114.38 292.685 1113.47 296.278 1111.64C299.871 1109.74 302.778 1106.9 305 1103.11C307.221 1099.32 308.331 1094.62 308.331 1089C308.331 1083.38 307.221 1078.68 305 1074.89C302.778 1071.1 299.871 1068.29 296.278 1066.46C292.685 1064.57 288.765 1063.62 284.519 1063.62C280.273 1063.62 276.32 1064.57 272.662 1066.46C269.069 1068.29 266.162 1071.14 263.941 1074.99C261.719 1078.78 260.609 1083.45 260.609 1089C260.609 1094.56 261.719 1099.26 263.941 1103.11C266.162 1106.9 269.069 1109.74 272.662 1111.64C276.32 1113.47 280.273 1114.38 284.519 1114.38ZM327.485 1042.95V1115.46H325.525V1042.95H327.485ZM347.126 1042.95V1115.46H345.166V1042.95H347.126ZM388.227 1116.15C383.327 1116.15 378.917 1115.07 374.998 1112.91C371.078 1110.69 367.975 1107.56 365.688 1103.51C363.467 1099.39 362.357 1094.56 362.357 1089C362.357 1083.45 363.467 1078.65 365.688 1074.6C367.975 1070.48 371.078 1067.35 374.998 1065.19C378.917 1062.97 383.327 1061.86 388.227 1061.86C393.126 1061.86 397.536 1062.97 401.456 1065.19C405.375 1067.35 408.446 1070.48 410.667 1074.6C412.888 1078.65 413.999 1083.45 413.999 1089C413.999 1094.56 412.888 1099.39 410.667 1103.51C408.446 1107.56 405.375 1110.69 401.456 1112.91C397.536 1115.07 393.126 1116.15 388.227 1116.15ZM388.227 1114.38C392.473 1114.38 396.393 1113.47 399.986 1111.64C403.579 1109.74 406.486 1106.9 408.707 1103.11C410.928 1099.32 412.039 1094.62 412.039 1089C412.039 1083.38 410.928 1078.68 408.707 1074.89C406.486 1071.1 403.579 1068.29 399.986 1066.46C396.393 1064.57 392.473 1063.62 388.227 1063.62C383.98 1063.62 380.028 1064.57 376.37 1066.46C372.776 1068.29 369.869 1071.14 367.648 1074.99C365.427 1078.78 364.316 1083.45 364.316 1089C364.316 1094.56 365.427 1099.26 367.648 1103.11C369.869 1106.9 372.776 1109.74 376.37 1111.64C380.028 1113.47 383.98 1114.38 388.227 1114.38ZM497.632 1062.54L480.973 1115.46H479.503L460.198 1066.17L440.992 1115.46H439.522L422.863 1062.54H424.921L440.404 1111.93L459.512 1062.54H460.982L480.091 1111.93L495.574 1062.54H497.632ZM581.785 1062.54V1115.46H579.825V1101.06C578.649 1106.09 576.167 1109.91 572.378 1112.52C568.654 1115.13 564.212 1116.44 559.051 1116.44C552.845 1116.44 547.749 1114.51 543.764 1110.66C539.779 1106.8 537.786 1100.99 537.786 1093.22V1062.54H539.648V1093.41C539.648 1100.34 541.379 1105.63 544.842 1109.29C548.304 1112.88 553.04 1114.68 559.051 1114.68C565.322 1114.68 570.353 1112.65 574.142 1108.6C577.931 1104.49 579.825 1098.44 579.825 1090.47V1062.54H581.785ZM616.5 1116.15C610.685 1116.15 605.982 1114.97 602.389 1112.62C598.861 1110.27 596.803 1106.71 596.215 1101.94H598.175C598.567 1105.86 600.298 1108.93 603.369 1111.15C606.504 1113.31 610.914 1114.38 616.598 1114.38C619.472 1114.38 621.987 1113.83 624.143 1112.72C626.364 1111.61 628.063 1110.14 629.239 1108.31C630.415 1106.41 631.003 1104.39 631.003 1102.23C631.003 1099.88 630.317 1097.99 628.945 1096.55C627.638 1095.05 625.972 1093.9 623.947 1093.12C621.987 1092.33 619.276 1091.49 615.814 1090.57C611.959 1089.59 608.824 1088.61 606.406 1087.63C604.055 1086.65 602.029 1085.15 600.331 1083.12C598.698 1081.1 597.881 1078.42 597.881 1075.09C597.881 1072.74 598.6 1070.55 600.037 1068.52C601.474 1066.5 603.434 1064.9 605.916 1063.72C608.464 1062.48 611.306 1061.86 614.442 1061.86C619.799 1061.86 624.11 1063.2 627.377 1065.88C630.643 1068.56 632.407 1072.28 632.668 1077.05H630.709C630.513 1073.13 629.01 1069.93 626.201 1067.44C623.457 1064.9 619.537 1063.62 614.442 1063.62C611.698 1063.62 609.216 1064.15 606.994 1065.19C604.773 1066.24 603.009 1067.64 601.703 1069.4C600.462 1071.17 599.841 1073.06 599.841 1075.09C599.841 1077.96 600.592 1080.28 602.095 1082.05C603.597 1083.81 605.426 1085.12 607.582 1085.97C609.803 1086.81 612.743 1087.73 616.402 1088.71C620.125 1089.75 623.032 1090.7 625.123 1091.55C627.279 1092.4 629.108 1093.71 630.611 1095.47C632.113 1097.17 632.864 1099.42 632.864 1102.23C632.864 1104.85 632.146 1107.23 630.709 1109.39C629.271 1111.48 627.312 1113.14 624.829 1114.38C622.347 1115.56 619.57 1116.15 616.5 1116.15ZM700.62 1116.15C695.721 1116.15 691.311 1115.07 687.391 1112.91C683.471 1110.69 680.368 1107.56 678.082 1103.51C675.861 1099.39 674.75 1094.56 674.75 1089C674.75 1083.45 675.861 1078.65 678.082 1074.6C680.368 1070.48 683.471 1067.35 687.391 1065.19C691.311 1062.97 695.721 1061.86 700.62 1061.86C705.52 1061.86 709.929 1062.97 713.849 1065.19C717.769 1067.35 720.839 1070.48 723.06 1074.6C725.282 1078.65 726.392 1083.45 726.392 1089C726.392 1094.56 725.282 1099.39 723.06 1103.51C720.839 1107.56 717.769 1110.69 713.849 1112.91C709.929 1115.07 705.52 1116.15 700.62 1116.15ZM700.62 1114.38C704.867 1114.38 708.786 1113.47 712.379 1111.64C715.972 1109.74 718.879 1106.9 721.101 1103.11C723.322 1099.32 724.432 1094.62 724.432 1089C724.432 1083.38 723.322 1078.68 721.101 1074.89C718.879 1071.1 715.972 1068.29 712.379 1066.46C708.786 1064.57 704.867 1063.62 700.62 1063.62C696.374 1063.62 692.421 1064.57 688.763 1066.46C685.17 1068.29 682.263 1071.14 680.042 1074.99C677.821 1078.78 676.71 1083.45 676.71 1089C676.71 1094.56 677.821 1099.26 680.042 1103.11C682.263 1106.9 685.17 1109.74 688.763 1111.64C692.421 1113.47 696.374 1114.38 700.62 1114.38ZM764.361 1061.37C770.567 1061.37 775.662 1063.3 779.647 1067.15C783.632 1071 785.625 1076.82 785.625 1084.59V1115.46H783.763V1084.4C783.763 1077.47 782.032 1072.21 778.569 1068.62C775.107 1064.96 770.371 1063.13 764.361 1063.13C758.089 1063.13 753.059 1065.19 749.27 1069.31C745.481 1073.36 743.586 1079.37 743.586 1087.34V1115.46H741.626V1062.54H743.586V1076.46C744.827 1071.56 747.31 1067.84 751.034 1065.29C754.757 1062.68 759.2 1061.37 764.361 1061.37ZM844.192 1046.96L832.139 1115.46H825.28L837.333 1046.96H844.192ZM883.44 1060.98C888.928 1060.98 893.305 1062.48 896.571 1065.48C899.903 1068.42 901.569 1072.74 901.569 1078.42C901.569 1080.51 901.405 1082.4 901.079 1084.1L895.493 1115.46H888.732L894.121 1084.89C894.382 1083.38 894.513 1081.78 894.513 1080.09C894.513 1075.77 893.337 1072.51 890.985 1070.29C888.634 1068.07 885.334 1066.95 881.088 1066.95C875.927 1066.95 871.517 1068.59 867.859 1071.85C864.201 1075.12 861.816 1079.92 860.706 1086.26V1085.97L855.512 1115.46H848.653L858.06 1061.96H864.919L863.253 1071.17C865.54 1067.9 868.447 1065.39 871.975 1063.62C875.503 1061.86 879.324 1060.98 883.44 1060.98ZM929.478 1116.24C924.056 1116.24 919.646 1115 916.249 1112.52C912.852 1109.97 911.153 1106.51 911.153 1102.13C911.153 1101.35 911.186 1100.76 911.251 1100.37H917.915C917.654 1103.51 918.568 1106.02 920.659 1107.92C922.749 1109.81 925.82 1110.76 929.87 1110.76C933.986 1110.76 937.285 1109.91 939.767 1108.21C942.25 1106.45 943.491 1104.13 943.491 1101.25C943.491 1099.55 942.968 1098.12 941.923 1096.94C940.878 1095.76 939.571 1094.82 938.003 1094.1C936.501 1093.31 934.378 1092.43 931.634 1091.45C928.237 1090.21 925.493 1089.07 923.403 1088.02C921.377 1086.91 919.614 1085.41 918.111 1083.52C916.674 1081.56 915.955 1079.11 915.955 1076.17C915.955 1073.23 916.804 1070.61 918.503 1068.33C920.201 1066.04 922.521 1064.28 925.46 1063.03C928.466 1061.79 931.863 1061.17 935.652 1061.17C940.943 1061.17 945.255 1062.48 948.587 1065.09C951.984 1067.71 953.682 1071.17 953.682 1075.48C953.682 1076.39 953.65 1077.08 953.584 1077.54H947.117C947.182 1077.28 947.215 1076.85 947.215 1076.26C947.215 1073.39 946.072 1071.07 943.785 1069.31C941.564 1067.54 938.689 1066.66 935.162 1066.66C931.634 1066.66 928.694 1067.51 926.342 1069.21C924.056 1070.84 922.913 1073.06 922.913 1075.87C922.913 1077.77 923.468 1079.37 924.578 1080.67C925.689 1081.91 927.061 1082.93 928.694 1083.71C930.327 1084.5 932.516 1085.41 935.26 1086.46C938.526 1087.7 941.139 1088.84 943.099 1089.88C945.124 1090.93 946.823 1092.37 948.195 1094.2C949.567 1096.03 950.253 1098.31 950.253 1101.06C950.253 1105.69 948.325 1109.39 944.471 1112.13C940.617 1114.87 935.619 1116.24 929.478 1116.24ZM973.944 1100.96C973.748 1102.13 973.65 1103.15 973.65 1104C973.65 1106.09 974.205 1107.56 975.316 1108.41C976.492 1109.19 978.386 1109.58 980.999 1109.58H987.271L986.193 1115.46H978.843C974.793 1115.46 971.755 1114.68 969.73 1113.11C967.705 1111.54 966.692 1108.96 966.692 1105.37C966.692 1103.93 966.823 1102.46 967.084 1100.96L972.964 1067.74H965.516L966.594 1061.96H974.042L976.394 1048.53H983.253L980.901 1061.96H995.698L994.62 1067.74H979.823L973.944 1100.96ZM1000.05 1088.61C1001.03 1083.12 1002.99 1078.32 1005.93 1074.21C1008.87 1070.03 1012.47 1066.82 1016.71 1064.6C1021.02 1062.32 1025.63 1061.17 1030.53 1061.17C1035.62 1061.17 1039.81 1062.35 1043.07 1064.7C1046.34 1067.05 1048.46 1070.06 1049.44 1073.72L1051.5 1061.96H1058.36L1048.95 1115.46H1042.09L1044.15 1103.6C1041.93 1107.26 1038.73 1110.3 1034.55 1112.72C1030.43 1115.07 1025.83 1116.24 1020.73 1116.24C1016.48 1116.24 1012.76 1115.36 1009.56 1113.6C1006.36 1111.84 1003.88 1109.35 1002.11 1106.15C1000.35 1102.89 999.465 1099.06 999.465 1094.69C999.465 1092.79 999.661 1090.77 1000.05 1088.61ZM1046.8 1088.71C1047.12 1086.88 1047.29 1085.25 1047.29 1083.81C1047.29 1078.71 1045.75 1074.66 1042.68 1071.66C1039.61 1068.65 1035.62 1067.15 1030.73 1067.15C1026.94 1067.15 1023.38 1068 1020.04 1069.7C1016.78 1071.4 1014 1073.88 1011.71 1077.15C1009.43 1080.35 1007.89 1084.17 1007.11 1088.61C1006.78 1090.57 1006.62 1092.24 1006.62 1093.61C1006.62 1098.77 1008.12 1102.85 1011.13 1105.86C1014.2 1108.8 1018.18 1110.27 1023.08 1110.27C1026.74 1110.27 1030.24 1109.39 1033.57 1107.62C1036.96 1105.86 1039.81 1103.34 1042.09 1100.08C1044.44 1096.81 1046.01 1093.02 1046.8 1088.71ZM1097.63 1061.17C1102.67 1061.17 1106.81 1062.35 1110.08 1064.7C1113.41 1067.05 1115.57 1070.03 1116.55 1073.62L1118.61 1061.96H1125.46L1115.86 1116.83C1115.01 1121.73 1113.18 1126.08 1110.37 1129.87C1107.63 1133.65 1104.17 1136.56 1099.99 1138.59C1095.81 1140.68 1091.3 1141.72 1086.46 1141.72C1079.6 1141.72 1074.18 1140.09 1070.2 1136.82C1066.28 1133.56 1064.25 1129.11 1064.12 1123.5H1070.88C1071.41 1127.22 1073.1 1130.19 1075.98 1132.41C1078.85 1134.63 1082.71 1135.75 1087.54 1135.75C1092.83 1135.75 1097.47 1134.05 1101.46 1130.65C1105.44 1127.32 1107.96 1122.71 1109 1116.83L1111.26 1103.6C1109.03 1107.26 1105.83 1110.3 1101.65 1112.72C1097.54 1115.07 1092.96 1116.24 1087.93 1116.24C1081.47 1116.24 1076.27 1114.32 1072.35 1110.46C1068.5 1106.54 1066.57 1101.28 1066.57 1094.69C1066.57 1092.79 1066.77 1090.77 1067.16 1088.61C1068.14 1083.12 1070.1 1078.32 1073.04 1074.21C1075.98 1070.03 1079.57 1066.82 1083.82 1064.6C1088.13 1062.32 1092.74 1061.17 1097.63 1061.17ZM1113.9 1088.71C1114.23 1086.88 1114.39 1085.25 1114.39 1083.81C1114.39 1078.71 1112.86 1074.66 1109.79 1071.66C1106.72 1068.65 1102.73 1067.15 1097.83 1067.15C1094.04 1067.15 1090.48 1068 1087.15 1069.7C1083.88 1071.4 1081.11 1073.88 1078.82 1077.15C1076.53 1080.35 1075 1084.17 1074.21 1088.61C1073.89 1090.57 1073.72 1092.24 1073.72 1093.61C1073.72 1098.77 1075.23 1102.85 1078.23 1105.86C1081.3 1108.8 1085.29 1110.27 1090.19 1110.27C1093.85 1110.27 1097.34 1109.39 1100.67 1107.62C1104.07 1105.86 1106.91 1103.34 1109.2 1100.08C1111.55 1096.81 1113.12 1093.02 1113.9 1088.71ZM1147.1 1072.64C1149.26 1068.91 1152.07 1066.04 1155.53 1064.01C1158.99 1061.99 1163.01 1060.98 1167.58 1060.98L1166.31 1068.13H1164.35C1159.65 1068.13 1155.59 1069.34 1152.2 1071.76C1148.8 1074.17 1146.45 1078.16 1145.14 1083.71L1139.56 1115.46H1132.7L1142.1 1061.96H1148.96L1147.1 1072.64ZM1170.75 1088.61C1171.73 1083.12 1173.69 1078.32 1176.63 1074.21C1179.57 1070.03 1183.16 1066.82 1187.41 1064.6C1191.72 1062.32 1196.32 1061.17 1201.22 1061.17C1206.32 1061.17 1210.5 1062.35 1213.77 1064.7C1217.03 1067.05 1219.16 1070.06 1220.14 1073.72L1222.19 1061.96H1229.05L1219.65 1115.46H1212.79L1214.84 1103.6C1212.62 1107.26 1209.42 1110.3 1205.24 1112.72C1201.13 1115.07 1196.52 1116.24 1191.42 1116.24C1187.18 1116.24 1183.45 1115.36 1180.25 1113.6C1177.05 1111.84 1174.57 1109.35 1172.81 1106.15C1171.04 1102.89 1170.16 1099.06 1170.16 1094.69C1170.16 1092.79 1170.36 1090.77 1170.75 1088.61ZM1217.49 1088.71C1217.82 1086.88 1217.98 1085.25 1217.98 1083.81C1217.98 1078.71 1216.45 1074.66 1213.37 1071.66C1210.3 1068.65 1206.32 1067.15 1201.42 1067.15C1197.63 1067.15 1194.07 1068 1190.74 1069.7C1187.47 1071.4 1184.7 1073.88 1182.41 1077.15C1180.12 1080.35 1178.59 1084.17 1177.8 1088.61C1177.48 1090.57 1177.31 1092.24 1177.31 1093.61C1177.31 1098.77 1178.82 1102.85 1181.82 1105.86C1184.89 1108.8 1188.88 1110.27 1193.78 1110.27C1197.43 1110.27 1200.93 1109.39 1204.26 1107.62C1207.66 1105.86 1210.5 1103.34 1212.79 1100.08C1215.14 1096.81 1216.71 1093.02 1217.49 1088.71ZM1309.68 1060.98C1315.04 1060.98 1319.32 1062.45 1322.52 1065.39C1325.79 1068.33 1327.42 1072.64 1327.42 1078.32C1327.42 1080.09 1327.22 1082.01 1326.83 1084.1L1321.25 1115.46H1314.48L1319.97 1084.89C1320.3 1082.93 1320.46 1081.29 1320.46 1079.99C1320.46 1075.74 1319.32 1072.51 1317.03 1070.29C1314.75 1068.07 1311.51 1066.95 1307.33 1066.95C1302.69 1066.95 1298.61 1068.42 1295.08 1071.36C1291.62 1074.3 1289.2 1078.55 1287.83 1084.1L1282.15 1115.46H1275.39L1280.87 1084.89C1281.2 1082.93 1281.36 1081.29 1281.36 1079.99C1281.36 1075.74 1280.22 1072.51 1277.93 1070.29C1275.65 1068.07 1272.45 1066.95 1268.33 1066.95C1263.36 1066.95 1259.09 1068.59 1255.49 1071.85C1251.9 1075.06 1249.52 1079.69 1248.34 1085.77L1243.15 1115.46H1236.29L1245.69 1061.96H1252.55L1250.89 1071.27C1253.11 1067.93 1255.95 1065.39 1259.41 1063.62C1262.94 1061.86 1266.66 1060.98 1270.58 1060.98C1275.22 1060.98 1279.08 1062.09 1282.15 1064.31C1285.22 1066.53 1287.14 1069.8 1287.93 1074.11C1290.08 1069.86 1293.12 1066.63 1297.04 1064.41C1300.96 1062.12 1305.17 1060.98 1309.68 1060.98Z" fill="white"/>
<g filter="url(#filter0_d_2320_882)">
<path d="M184.088 491.912C174.245 491.912 166.707 489.109 161.474 483.502C156.365 477.895 153.811 469.983 153.811 459.767V389.496C153.811 379.279 156.365 371.368 161.474 365.761C166.707 360.154 174.245 357.351 184.088 357.351C193.93 357.351 201.406 360.154 206.514 365.761C211.747 371.368 214.364 379.279 214.364 389.496V403.326H194.927V388.188C194.927 380.089 191.501 376.04 184.648 376.04C177.796 376.04 174.369 380.089 174.369 388.188V461.262C174.369 469.236 177.796 473.223 184.648 473.223C191.501 473.223 194.927 469.236 194.927 461.262V441.265H214.364V459.767C214.364 469.983 211.747 477.895 206.514 483.502C201.406 489.109 193.93 491.912 184.088 491.912ZM253.006 491.912C242.914 491.912 235.189 489.046 229.832 483.315C224.474 477.584 221.796 469.485 221.796 459.019V390.244C221.796 379.778 224.474 371.679 229.832 365.948C235.189 360.217 242.914 357.351 253.006 357.351C263.098 357.351 270.823 360.217 276.181 365.948C281.538 371.679 284.217 379.778 284.217 390.244V459.019C284.217 469.485 281.538 477.584 276.181 483.315C270.823 489.046 263.098 491.912 253.006 491.912ZM253.006 473.223C260.108 473.223 263.659 468.924 263.659 460.327V388.935C263.659 380.338 260.108 376.04 253.006 376.04C245.904 376.04 242.353 380.338 242.353 388.935V460.327C242.353 468.924 245.904 473.223 253.006 473.223ZM294.382 359.22H320.173L340.17 437.527H340.544V359.22H358.859V490.043H337.741L313.071 394.542H312.697V490.043H294.382V359.22ZM386.474 377.909H364.981V359.22H428.524V377.909H407.032V490.043H386.474V377.909ZM442.047 359.22H469.894L491.199 490.043H470.641L466.904 464.065V464.439H443.542L439.805 490.043H420.742L442.047 359.22ZM464.474 446.684L455.316 382.02H454.943L445.972 446.684H464.474ZM526.038 491.912C516.195 491.912 508.658 489.109 503.425 483.502C498.316 477.895 495.762 469.983 495.762 459.767V389.496C495.762 379.279 498.316 371.368 503.425 365.761C508.658 360.154 516.195 357.351 526.038 357.351C535.881 357.351 543.357 360.154 548.465 365.761C553.698 371.368 556.315 379.279 556.315 389.496V403.326H536.878V388.188C536.878 380.089 533.452 376.04 526.599 376.04C519.746 376.04 516.32 380.089 516.32 388.188V461.262C516.32 469.236 519.746 473.223 526.599 473.223C533.452 473.223 536.878 469.236 536.878 461.262V441.265H556.315V459.767C556.315 469.983 553.698 477.895 548.465 483.502C543.357 489.109 535.881 491.912 526.038 491.912ZM580.949 377.909H559.457V359.22H622.999V377.909H601.507V490.043H580.949V377.909ZM685.311 491.912C675.344 491.912 667.744 489.109 662.511 483.502C657.278 477.771 654.661 469.61 654.661 459.019V359.22H675.219V460.514C675.219 465 676.091 468.239 677.836 470.233C679.705 472.226 682.321 473.223 685.685 473.223C689.049 473.223 691.603 472.226 693.348 470.233C695.216 468.239 696.151 465 696.151 460.514V359.22H715.961V459.019C715.961 469.61 713.345 477.771 708.112 483.502C702.879 489.109 695.279 491.912 685.311 491.912ZM753.59 491.912C743.623 491.912 736.085 489.109 730.977 483.502C725.868 477.771 723.314 469.61 723.314 459.019V451.544H742.751V460.514C742.751 468.987 746.302 473.223 753.404 473.223C756.892 473.223 759.509 472.226 761.253 470.233C763.122 468.115 764.056 464.75 764.056 460.141C764.056 454.658 762.81 449.862 760.318 445.75C757.827 441.514 753.217 436.468 746.489 430.612C738.016 423.136 732.098 416.408 728.734 410.428C725.37 404.323 723.688 397.47 723.688 389.87C723.688 379.529 726.304 371.555 731.537 365.948C736.77 360.217 744.37 357.351 754.338 357.351C764.181 357.351 771.594 360.217 776.578 365.948C781.686 371.555 784.24 379.653 784.24 390.244V395.663H764.804V388.935C764.804 384.45 763.932 381.211 762.187 379.217C760.443 377.099 757.889 376.04 754.525 376.04C747.672 376.04 744.246 380.214 744.246 388.562C744.246 393.296 745.492 397.719 747.984 401.831C750.6 405.942 755.272 410.926 762 416.782C770.597 424.258 776.516 431.048 779.755 437.153C782.994 443.258 784.614 450.422 784.614 458.645C784.614 469.36 781.935 477.584 776.578 483.315C771.345 489.046 763.682 491.912 753.59 491.912ZM799.392 490.043H792.664V470.233H812.474V487.987L802.195 512.47H792.664L799.392 490.043ZM845.485 359.22H865.295L874.453 459.767H874.827L884.545 359.22H906.972L916.69 459.767H917.064L926.222 359.22H943.976L930.707 490.043H905.103L895.758 401.831H895.385L886.04 490.043H858.754L845.485 359.22ZM950.637 359.22H1006.7V377.909H971.195V412.483H999.415V431.173H971.195V471.354H1006.7V490.043H950.637V359.22ZM1021.52 379.03H1014.79V359.22H1034.6V376.974L1023.2 401.457H1013.67L1021.52 379.03ZM1046.28 359.22H1076.74C1087.33 359.22 1095.06 361.712 1099.92 366.695C1104.78 371.555 1107.21 379.092 1107.21 389.309V397.345C1107.21 410.926 1102.72 419.523 1093.75 423.136V423.51C1098.73 425.005 1102.22 428.058 1104.22 432.668C1106.33 437.278 1107.39 443.445 1107.39 451.17V474.157C1107.39 477.895 1107.52 480.948 1107.77 483.315C1108.02 485.558 1108.64 487.8 1109.64 490.043H1088.7C1087.96 487.925 1087.46 485.931 1087.21 484.062C1086.96 482.194 1086.83 478.83 1086.83 473.97V450.048C1086.83 444.068 1085.84 439.894 1083.84 437.527C1081.98 435.16 1078.67 433.976 1073.94 433.976H1066.84V490.043H1046.28V359.22ZM1074.31 415.287C1078.42 415.287 1081.48 414.228 1083.47 412.11C1085.59 409.992 1086.65 406.441 1086.65 401.457V391.365C1086.65 386.63 1085.78 383.204 1084.03 381.086C1082.41 378.968 1079.8 377.909 1076.18 377.909H1066.84V415.287H1074.31ZM1117.92 359.22H1173.99V377.909H1138.48V412.483H1166.7V431.173H1138.48V471.354H1173.99V490.043H1117.92V359.22ZM1202.85 359.22H1223.59L1237.05 460.701H1237.42L1250.88 359.22H1269.76L1249.94 490.043H1222.66L1202.85 359.22ZM1275.89 359.22H1331.96V377.909H1296.45V412.483H1324.67V431.173H1296.45V471.354H1331.96V490.043H1275.89V359.22ZM1340.05 359.22H1370.51C1381.1 359.22 1388.83 361.712 1393.69 366.695C1398.54 371.555 1400.97 379.092 1400.97 389.309V397.345C1400.97 410.926 1396.49 419.523 1387.52 423.136V423.51C1392.5 425.005 1395.99 428.058 1397.98 432.668C1400.1 437.278 1401.16 443.445 1401.16 451.17V474.157C1401.16 477.895 1401.29 480.948 1401.53 483.315C1401.78 485.558 1402.41 487.8 1403.4 490.043H1382.47C1381.72 487.925 1381.23 485.931 1380.98 484.062C1380.73 482.194 1380.6 478.83 1380.6 473.97V450.048C1380.6 444.068 1379.61 439.894 1377.61 437.527C1375.74 435.16 1372.44 433.976 1367.71 433.976H1360.61V490.043H1340.05V359.22ZM1368.08 415.287C1372.19 415.287 1375.25 414.228 1377.24 412.11C1379.36 409.992 1380.42 406.441 1380.42 401.457V391.365C1380.42 386.63 1379.54 383.204 1377.8 381.086C1376.18 378.968 1373.56 377.909 1369.95 377.909H1360.61V415.287H1368.08ZM1427.64 434.35L1402.79 359.22H1424.65L1438.67 407.251H1439.04L1453.06 359.22H1473.06L1448.2 434.35V490.043H1427.64V434.35Z" fill="white"/>
<rect x="1510.07" y="482.84" width="665.849" height="145.664" rx="22.0366" transform="rotate(-5.28238 1510.07 482.84)" fill="#D68F2D"/>
<g filter="url(#filter1_d_2320_882)">
<rect x="1531.29" y="230.555" width="474.491" height="166.445" rx="9.37729" transform="rotate(8.16569 1531.29 230.555)" fill="#E6DCCE"/>
</g>
<path d="M1546.26 362.93L1559.28 272.269L1593.28 277.15C1600.24 278.15 1605.91 280.199 1610.29 283.297C1614.69 286.399 1617.79 290.308 1619.58 295.023C1621.41 299.713 1621.91 304.95 1621.08 310.735C1620.24 316.548 1618.28 321.417 1615.18 325.34C1612.12 329.238 1608.04 332.01 1602.92 333.655C1597.81 335.271 1591.77 335.578 1584.81 334.578L1560.59 331.102L1562.55 317.467L1584.55 320.626C1588.62 321.211 1592.04 321.129 1594.8 320.38C1597.56 319.602 1599.72 318.21 1601.27 316.204C1602.86 314.173 1603.88 311.549 1604.34 308.332C1604.8 305.115 1604.56 302.28 1603.62 299.825C1602.68 297.341 1601 295.322 1598.57 293.769C1596.15 292.186 1592.89 291.1 1588.78 290.511L1573.73 288.35L1562.69 365.288L1546.26 362.93ZM1599 328.574L1615.54 372.877L1597.22 370.245L1581.07 326L1599 328.574ZM1639.77 377.755C1635.46 377.137 1631.69 375.812 1628.46 373.782C1625.26 371.726 1622.87 369.034 1621.3 365.707C1619.76 362.383 1619.31 358.493 1619.95 354.037C1620.5 350.2 1621.67 347.129 1623.44 344.824C1625.22 342.519 1627.44 340.79 1630.11 339.636C1632.77 338.483 1635.69 337.743 1638.87 337.416C1642.09 337.064 1645.37 336.948 1648.73 337.069C1652.77 337.228 1656.05 337.323 1658.58 337.354C1661.11 337.356 1662.99 337.083 1664.21 336.536C1665.47 335.963 1666.21 334.909 1666.43 333.375L1666.46 333.109C1666.94 329.774 1666.32 327.05 1664.61 324.936C1662.9 322.823 1660.18 321.499 1656.46 320.965C1652.54 320.402 1649.3 320.811 1646.75 322.192C1644.23 323.577 1642.41 325.379 1641.28 327.596L1626.62 323.323C1628.39 319.36 1630.84 316.187 1633.95 313.803C1637.07 311.389 1640.69 309.77 1644.81 308.947C1648.94 308.094 1653.38 308.008 1658.13 308.69C1661.41 309.161 1664.61 310.012 1667.75 311.246C1670.89 312.479 1673.67 314.174 1676.1 316.33C1678.54 318.457 1680.35 321.142 1681.54 324.385C1682.76 327.633 1683.05 331.514 1682.4 336.03L1675.87 381.537L1660.46 379.325L1661.8 369.985L1661.27 369.909C1660.03 371.658 1658.4 373.231 1656.39 374.63C1654.42 376.003 1652.03 377.001 1649.23 377.623C1646.46 378.219 1643.31 378.264 1639.77 377.755ZM1645.62 366.577C1648.84 367.039 1651.72 366.805 1654.26 365.875C1656.81 364.915 1658.87 363.464 1660.44 361.522C1662.05 359.583 1663.03 357.36 1663.39 354.851L1664.54 346.839C1663.98 347.18 1663.07 347.441 1661.81 347.621C1660.57 347.806 1659.2 347.925 1657.69 347.979C1656.17 348.032 1654.68 348.059 1653.2 348.058C1651.73 348.057 1650.45 348.054 1649.36 348.049C1646.93 348.03 1644.71 348.254 1642.72 348.721C1640.72 349.187 1639.08 350.006 1637.8 351.178C1636.52 352.319 1635.73 353.923 1635.44 355.989C1635.01 358.94 1635.77 361.323 1637.71 363.138C1639.65 364.952 1642.28 366.099 1645.62 366.577ZM1710.81 387.774C1705.47 387.007 1700.88 384.948 1697.06 381.597C1693.23 378.247 1690.47 373.784 1688.77 368.209C1687.07 362.633 1686.75 356.113 1687.83 348.646C1688.91 341.091 1691.07 334.894 1694.29 330.056C1697.55 325.193 1701.49 321.738 1706.12 319.692C1710.76 317.616 1715.69 316.954 1720.91 317.704C1724.9 318.276 1728.08 319.425 1730.45 321.151C1732.83 322.848 1734.63 324.748 1735.86 326.853C1737.1 328.928 1738.02 330.852 1738.61 332.623L1739.27 332.718L1744.14 298.809L1760.21 301.116L1747.19 391.777L1731.43 389.515L1732.97 378.802L1732 378.662C1730.93 380.196 1729.48 381.78 1727.65 383.415C1725.83 385.02 1723.54 386.288 1720.78 387.218C1718.03 388.148 1714.7 388.333 1710.81 387.774ZM1717.17 375.268C1720.56 375.755 1723.58 375.255 1726.24 373.769C1728.89 372.253 1731.08 369.931 1732.79 366.804C1734.51 363.676 1735.68 359.914 1736.31 355.517C1736.94 351.119 1736.87 347.209 1736.1 343.784C1735.36 340.364 1733.92 337.583 1731.79 335.439C1729.68 333.3 1726.91 331.983 1723.45 331.487C1719.88 330.974 1716.77 331.476 1714.11 332.992C1711.45 334.508 1709.28 336.817 1707.6 339.919C1705.92 343.021 1704.78 346.682 1704.17 350.903C1703.56 355.152 1703.62 359.032 1704.36 362.54C1705.12 366.023 1706.56 368.896 1708.68 371.157C1710.82 373.393 1713.65 374.764 1717.17 375.268ZM1758.03 393.334L1767.8 325.338L1783.82 327.639L1774.06 395.635L1758.03 393.334ZM1777.24 316.844C1774.7 316.48 1772.64 315.325 1771.05 313.381C1769.47 311.406 1768.84 309.224 1769.19 306.833C1769.54 304.413 1770.74 302.494 1772.82 301.074C1774.89 299.625 1777.2 299.083 1779.74 299.447C1782.3 299.816 1784.37 300.985 1785.92 302.955C1787.51 304.9 1788.13 307.083 1787.78 309.503C1787.44 311.893 1786.23 313.813 1784.15 315.262C1782.11 316.686 1779.81 317.213 1777.24 316.844ZM1803.67 401.287C1799.37 400.668 1795.6 399.344 1792.36 397.314C1789.16 395.258 1786.78 392.566 1785.21 389.238C1783.67 385.915 1783.22 382.025 1783.86 377.568C1784.41 373.732 1785.57 370.661 1787.35 368.356C1789.13 366.051 1791.35 364.321 1794.01 363.168C1796.68 362.015 1799.6 361.274 1802.78 360.948C1805.99 360.596 1809.28 360.48 1812.63 360.6C1816.68 360.759 1819.96 360.854 1822.49 360.886C1825.02 360.887 1826.89 360.615 1828.12 360.067C1829.37 359.495 1830.11 358.441 1830.33 356.907L1830.37 356.641C1830.85 353.306 1830.23 350.582 1828.52 348.468C1826.8 346.355 1824.09 345.031 1820.37 344.497C1816.44 343.933 1813.21 344.342 1810.66 345.724C1808.14 347.109 1806.31 348.91 1805.18 351.127L1790.53 346.854C1792.3 342.892 1794.74 339.719 1797.86 337.334C1800.97 334.921 1804.59 333.302 1808.72 332.478C1812.85 331.625 1817.29 331.54 1822.04 332.222C1825.31 332.692 1828.52 333.544 1831.66 334.778C1834.79 336.011 1837.58 337.706 1840.01 339.862C1842.44 341.989 1844.26 344.674 1845.45 347.917C1846.67 351.165 1846.95 355.046 1846.31 359.561L1839.77 405.069L1824.37 402.857L1825.71 393.517L1825.18 393.44C1823.93 395.189 1822.31 396.763 1820.3 398.162C1818.32 399.535 1815.94 400.532 1813.14 401.154C1810.37 401.751 1807.22 401.795 1803.67 401.287ZM1809.53 390.109C1812.74 390.571 1815.62 390.337 1818.17 389.407C1820.71 388.447 1822.77 386.996 1824.35 385.053C1825.95 383.115 1826.93 380.891 1827.29 378.383L1828.44 370.37C1827.88 370.712 1826.97 370.972 1825.71 371.153C1824.48 371.337 1823.11 371.457 1821.59 371.51C1820.08 371.564 1818.59 371.591 1817.11 371.589C1815.63 371.588 1814.35 371.585 1813.27 371.58C1810.83 371.562 1808.62 371.786 1806.62 372.253C1804.63 372.719 1802.99 373.538 1801.71 374.709C1800.43 375.851 1799.64 377.455 1799.34 379.521C1798.92 382.472 1799.68 384.855 1801.62 386.669C1803.56 388.484 1806.19 389.63 1809.53 390.109ZM1871.4 368.947L1865.68 408.788L1849.65 406.487L1859.42 338.492L1874.73 340.691L1873.07 352.245L1873.87 352.359C1875.98 348.777 1878.91 346.11 1882.65 344.358C1886.43 342.611 1890.86 342.102 1895.93 342.831C1900.62 343.504 1904.57 345.095 1907.76 347.601C1910.99 350.112 1913.28 353.409 1914.65 357.491C1916.06 361.578 1916.35 366.335 1915.54 371.76L1909.33 415.055L1893.3 412.754L1899.16 371.939C1899.81 367.394 1899.14 363.668 1897.15 360.762C1895.19 357.86 1892.14 356.112 1888.01 355.519C1885.21 355.116 1882.62 355.378 1880.26 356.304C1877.93 357.205 1875.98 358.717 1874.41 360.841C1872.87 362.969 1871.87 365.671 1871.4 368.947ZM1963.1 353.378L1961.32 365.773L1922.23 360.161L1924.01 347.766L1963.1 353.378ZM1936 332.861L1952.03 335.161L1942.86 398.996C1942.55 401.15 1942.64 402.849 1943.12 404.094C1943.64 405.312 1944.42 406.207 1945.45 406.777C1946.48 407.347 1947.66 407.727 1948.99 407.918C1949.99 408.062 1950.92 408.119 1951.77 408.09C1952.64 408.066 1953.31 408.026 1953.77 407.972L1954.67 420.887C1953.78 421.059 1952.5 421.208 1950.86 421.334C1949.24 421.463 1947.3 421.394 1945.02 421.127C1940.98 420.669 1937.46 419.545 1934.43 417.755C1931.41 415.936 1929.16 413.474 1927.67 410.369C1926.22 407.269 1925.82 403.597 1926.46 399.351L1936 332.861Z" fill="#18140E"/>
<path d="M1596.99 593.618C1591.2 594.153 1586.1 593.56 1581.71 591.837C1577.35 590.111 1573.88 587.537 1571.29 584.115C1568.71 580.665 1567.2 576.632 1566.77 572.017C1566.45 568.5 1566.89 565.308 1568.1 562.443C1569.31 559.55 1571.11 556.815 1573.51 554.238C1575.92 551.66 1578.72 549.031 1581.94 546.35L1594.96 535.227C1597.18 533.461 1598.87 531.658 1600.04 529.82C1601.2 527.953 1601.66 525.739 1601.42 523.178C1601.24 521.152 1600.18 519.291 1598.27 517.595C1596.35 515.899 1593.93 515.186 1591 515.456C1588.98 515.644 1587.24 516.301 1585.78 517.429C1584.35 518.555 1583.27 519.931 1582.54 521.56C1581.84 523.157 1581.56 524.8 1581.72 526.489C1581.9 528.459 1582.62 530.393 1583.87 532.292C1585.16 534.189 1586.75 536.127 1588.67 538.107C1590.58 540.059 1592.58 542.088 1594.68 544.193L1639.26 588.477L1624.99 589.796L1588.16 553.82C1585.07 550.785 1582.2 547.929 1579.54 545.252C1576.88 542.546 1574.66 539.771 1572.89 536.926C1571.15 534.05 1570.12 530.867 1569.8 527.378C1569.43 523.41 1570.01 519.809 1571.52 516.575C1573.07 513.311 1575.39 510.655 1578.49 508.609C1581.6 506.563 1585.34 505.337 1589.73 504.931C1594.18 504.52 1598.07 505.04 1601.41 506.491C1604.78 507.911 1607.45 509.977 1609.44 512.689C1611.44 515.37 1612.6 518.399 1612.92 521.775C1613.3 525.884 1612.6 529.609 1610.84 532.951C1609.1 536.261 1606.57 539.391 1603.24 542.338L1587.07 556.731C1583.92 559.52 1581.8 562.185 1580.7 564.727C1579.63 567.239 1579.15 569.17 1579.28 570.521C1579.51 572.997 1580.35 575.232 1581.81 577.226C1583.3 579.217 1585.26 580.739 1587.68 581.792C1590.14 582.842 1592.92 583.223 1596.05 582.934C1599.26 582.638 1602.32 581.66 1605.23 580C1608.16 578.31 1610.75 576.041 1612.98 573.195C1615.25 570.347 1616.94 567.026 1618.07 563.232C1619.19 559.439 1619.55 555.277 1619.13 550.746L1630.52 549.693C1631.04 555.265 1630.84 560.037 1629.93 564.009C1629.02 567.953 1627.77 571.219 1626.2 573.805C1624.64 576.361 1623.14 578.387 1621.69 579.883C1621.23 580.38 1620.79 580.875 1620.38 581.367C1619.97 581.859 1619.54 582.353 1619.07 582.85C1616.42 586.075 1613.07 588.584 1609.04 590.376C1605.03 592.165 1601.02 593.246 1596.99 593.618ZM1693.58 518.067L1694.52 528.198L1657.88 531.584L1656.94 521.453L1693.58 518.067ZM1672.98 585.361L1666.3 513.011C1665.92 508.959 1666.5 505.514 1668.02 502.677C1669.55 499.811 1671.71 497.582 1674.51 495.989C1677.32 494.368 1680.43 493.399 1683.87 493.081C1686.4 492.847 1688.58 492.858 1690.42 493.114C1692.26 493.341 1693.63 493.584 1694.54 493.841L1692.53 504.329C1691.92 504.215 1691.14 504.088 1690.19 503.948C1689.24 503.781 1688.1 503.758 1686.78 503.881C1683.71 504.164 1681.59 505.127 1680.41 506.769C1679.25 508.408 1678.81 510.663 1679.07 513.533L1685.6 584.194L1672.98 585.361ZM1745.24 551.565L1741.73 513.617L1754.4 512.447L1760.39 577.283L1747.98 578.43L1746.94 567.202L1746.26 567.264C1745.09 570.863 1742.97 573.969 1739.89 576.581C1736.83 579.162 1732.87 580.677 1728.01 581.127C1723.84 581.512 1720.07 580.938 1716.69 579.405C1713.34 577.842 1710.58 575.33 1708.42 571.869C1706.28 568.405 1704.97 564 1704.47 558.653L1700.66 517.413L1713.28 516.246L1716.95 555.967C1717.36 560.385 1718.91 563.789 1721.6 566.18C1724.29 568.571 1727.59 569.586 1731.5 569.224C1733.87 569.006 1736.16 568.198 1738.39 566.8C1740.64 565.4 1742.43 563.432 1743.76 560.897C1745.12 558.359 1745.61 555.249 1745.24 551.565ZM1780.47 536.602L1784.02 575.099L1771.4 576.265L1765.41 511.429L1777.53 510.309L1778.5 520.862L1779.3 520.788C1780.48 517.217 1782.56 514.243 1785.55 511.867C1788.56 509.488 1792.5 508.074 1797.37 507.624C1801.79 507.215 1805.74 507.787 1809.24 509.337C1812.73 510.859 1815.55 513.351 1817.72 516.812C1819.88 520.273 1821.21 524.677 1821.71 530.024L1825.52 571.264L1812.9 572.43L1809.23 532.71C1808.79 528.01 1807.23 524.451 1804.53 522.032C1801.84 519.585 1798.35 518.559 1794.08 518.954C1791.15 519.225 1788.6 520.099 1786.44 521.576C1784.31 523.05 1782.69 525.072 1781.6 527.643C1780.53 530.183 1780.15 533.169 1780.47 536.602ZM1906.07 514.394L1894.82 517.477C1894.21 516.058 1893.32 514.735 1892.15 513.509C1891.02 512.28 1889.54 511.324 1887.72 510.641C1885.89 509.958 1883.67 509.738 1881.06 509.979C1877.48 510.31 1874.57 511.387 1872.33 513.212C1870.08 515.009 1869.08 517.16 1869.31 519.665C1869.51 521.831 1870.47 523.502 1872.2 524.676C1873.92 525.851 1876.61 526.695 1880.26 527.209L1890.78 528.621C1896.88 529.448 1901.52 531.162 1904.71 533.762C1907.9 536.362 1909.71 539.955 1910.13 544.542C1910.49 548.426 1909.69 551.991 1907.72 555.238C1905.77 558.455 1902.88 561.106 1899.04 563.192C1895.23 565.275 1890.71 566.559 1885.48 567.042C1878.22 567.713 1872.15 566.713 1867.28 564.041C1862.4 561.342 1859.18 557.17 1857.61 551.525L1869.63 548.54C1870.69 551.65 1872.47 553.912 1874.99 555.326C1877.5 556.711 1880.66 557.228 1884.45 556.877C1888.59 556.495 1891.82 555.331 1894.14 553.386C1896.45 551.412 1897.49 549.173 1897.26 546.669C1897.07 544.642 1896.16 543.01 1894.51 541.772C1892.89 540.531 1890.5 539.701 1887.34 539.284L1876.14 537.892C1869.97 537.072 1865.29 535.291 1862.11 532.548C1858.96 529.802 1857.18 526.121 1856.75 521.506C1856.4 517.679 1857.16 514.232 1859.03 511.164C1860.9 508.096 1863.65 505.585 1867.27 503.633C1870.89 501.652 1875.14 500.437 1880.01 499.987C1887.01 499.34 1892.67 500.349 1896.97 503.017C1901.28 505.656 1904.31 509.448 1906.07 514.394ZM1928.86 522.888L1932.42 561.384L1919.8 562.551L1911.81 476.103L1924.26 474.952L1927.24 507.117L1928.04 507.043C1929.23 503.413 1931.3 500.426 1934.23 498.083C1937.17 495.74 1941.15 494.336 1946.19 493.871C1950.64 493.46 1954.6 494.015 1958.09 495.538C1961.61 497.057 1964.45 499.548 1966.62 503.009C1968.81 506.439 1970.15 510.856 1970.65 516.259L1974.46 557.499L1961.84 558.666L1958.17 518.945C1957.73 514.189 1956.17 510.616 1953.48 508.225C1950.78 505.806 1947.26 504.798 1942.9 505.201C1939.91 505.477 1937.3 506.357 1935.05 507.842C1932.83 509.324 1931.16 511.352 1930.04 513.925C1928.94 516.467 1928.55 519.455 1928.86 522.888ZM2023.95 525.808L2020.44 487.86L2033.1 486.69L2039.1 551.526L2026.69 552.673L2025.65 541.445L2024.97 541.507C2023.8 545.106 2021.68 548.212 2018.6 550.824C2015.54 553.405 2011.58 554.92 2006.71 555.37C2002.55 555.755 1998.78 555.181 1995.4 553.648C1992.05 552.085 1989.29 549.573 1987.13 546.112C1984.99 542.648 1983.68 538.243 1983.18 532.896L1979.37 491.656L1991.99 490.489L1995.66 530.21C1996.07 534.628 1997.62 538.033 2000.31 540.423C2003 542.814 2006.3 543.829 2010.21 543.467C2012.58 543.249 2014.87 542.441 2017.1 541.043C2019.35 539.643 2021.14 537.675 2022.47 535.14C2023.82 532.602 2024.32 529.492 2023.95 525.808ZM2059.18 510.845L2062.73 549.342L2050.11 550.508L2044.12 485.672L2056.23 484.552L2057.21 495.105L2058.01 495.031C2059.19 491.46 2061.27 488.486 2064.25 486.11C2067.27 483.731 2071.21 482.317 2076.08 481.867C2080.5 481.459 2084.45 482.03 2087.95 483.58C2091.44 485.102 2094.26 487.594 2096.43 491.055C2098.59 494.516 2099.92 498.92 2100.41 504.267L2104.23 545.507L2091.61 546.673L2087.93 506.953C2087.5 502.253 2085.94 498.694 2083.24 496.275C2080.55 493.828 2077.06 492.802 2072.78 493.197C2069.86 493.468 2067.31 494.342 2065.15 495.819C2063.02 497.293 2061.4 499.315 2060.31 501.886C2059.23 504.426 2058.86 507.412 2059.18 510.845Z" fill="#18140E"/>
</g>
</g>
<defs>
<filter id="filter0_d_2320_882" x="107.125" y="41" width="2800.99" height="790.036" filterUnits="userSpaceOnUse" color-interpolation-filters="sRGB">
<feFlood flood-opacity="0" result="BackgroundImageFix"/>
<feColorMatrix in="SourceAlpha" type="matrix" values="0 0 0 0 0 0 0 0 0 0 0 0 0 0 0 0 0 0 127 0" result="hardAlpha"/>
<feOffset dy="1.87546"/>
<feGaussianBlur stdDeviation="0.937728"/>
<feComposite in2="hardAlpha" operator="out"/>
<feColorMatrix type="matrix" values="0 0 0 0 0 0 0 0 0 0 0 0 0 0 0 0 0 0 0.25 0"/>
<feBlend mode="normal" in2="BackgroundImageFix" result="effect1_dropShadow_2320_882"/>
<feBlend mode="normal" in="SourceGraphic" in2="effect1_dropShadow_2320_882" result="shape"/>
</filter>
<filter id="filter1_d_2320_882" x="1508.99" y="231.902" width="504.691" height="247.743" filterUnits="userSpaceOnUse" color-interpolation-filters="sRGB">
<feFlood flood-opacity="0" result="BackgroundImageFix"/>
<feColorMatrix in="SourceAlpha" type="matrix" values="0 0 0 0 0 0 0 0 0 0 0 0 0 0 0 0 0 0 127 0" result="hardAlpha"/>
<feOffset dx="14.0659" dy="18.2857"/>
<feComposite in2="hardAlpha" operator="out"/>
<feColorMatrix type="matrix" values="0 0 0 0 0 0 0 0 0 0 0 0 0 0 0 0 0 0 0.25 0"/>
<feBlend mode="normal" in2="BackgroundImageFix" result="effect1_dropShadow_2320_882"/>
<feBlend mode="normal" in="SourceGraphic" in2="effect1_dropShadow_2320_882" result="shape"/>
</filter>
<clipPath id="clip0_2320_882">
<rect width="3280" height="1584" fill="white"/>
</clipPath>
</defs>
</svg>
