<svg width="7680" height="1320" viewBox="0 0 7680 1320" fill="none" xmlns="http://www.w3.org/2000/svg">
<g clip-path="url(#clip0_2215_370)">
<path opacity="0.4" d="M253.423 719.219C171.888 719.219 101.655 701.055 42.7233 664.727C-15.4009 627.592 -60.2049 577.945 -91.6889 515.784C-123.173 453.623 -138.915 384.601 -138.915 308.717C-138.915 232.832 -122.769 163.81 -90.4779 101.649C-58.1867 39.4888 -12.5754 -9.75531 46.356 -46.0829C106.095 -83.2178 175.924 -101.785 255.845 -101.785C342.224 -101.785 416.898 -80.3923 479.865 -37.6065C543.641 4.37213 590.463 58.8635 620.332 125.868H521.037C496.818 83.0819 462.913 49.1761 419.319 24.1505C376.534 -0.875196 324.464 -13.388 263.111 -13.388C198.528 -13.388 142.826 1.143 96.0038 30.205C49.1815 58.4599 13.2576 96.8057 -11.7681 145.242C-35.9865 193.679 -48.0957 248.171 -48.0957 308.717C-48.0957 368.455 -35.9865 422.947 -11.7681 472.191C12.4503 520.628 47.567 559.377 93.5819 588.439C140.404 616.694 196.106 630.821 260.689 630.821C309.126 630.821 354.737 620.327 397.523 599.338C441.116 578.348 476.233 548.075 502.873 508.519C530.32 468.962 544.044 421.332 544.044 365.63H251.002V283.287H627.598V709.531H544.044V567.854C527.091 593.687 505.295 618.309 478.655 641.72C452.014 664.324 419.723 682.891 381.781 697.422C344.646 711.953 301.86 719.219 253.423 719.219ZM799.132 709.531V-92.0979H1182.99C1265.34 -92.0979 1330.73 -69.494 1379.16 -24.2863C1428.41 20.9214 1453.03 81.871 1453.03 158.563C1453.03 210.229 1442.94 251.4 1422.76 282.076C1403.38 312.753 1378.76 336.164 1348.89 352.31C1319.02 367.648 1289.15 378.95 1259.28 386.216L1469.98 709.531H1362.21L1168.46 401.958H889.951V709.531H799.132ZM889.951 315.982H1167.25C1196.31 315.982 1225.78 311.542 1255.65 302.662C1285.52 293.782 1310.54 278.04 1330.73 255.436C1351.72 232.025 1362.21 199.734 1362.21 158.563C1362.21 107.704 1344.85 67.7436 1310.14 38.6815C1275.43 8.81216 1229.41 -6.12252 1172.1 -6.12252H889.951V315.982ZM1526.83 709.531L1867.1 -92.0979H1980.92L2321.19 709.531H2220.69L2122.6 477.035H1725.42L1627.34 709.531H1526.83ZM1760.54 393.481H2087.48L1924.01 2.35388L1760.54 393.481Z" fill="white" fill-opacity="0.32"/>
<path opacity="0.4" d="M894.085 1509V707.371H1254.94C1340.51 707.371 1407.92 730.782 1457.16 777.604C1506.41 823.619 1531.03 886.183 1531.03 965.297C1531.03 1044.41 1506.41 1107.38 1457.16 1154.2C1407.92 1200.22 1340.51 1223.22 1254.94 1223.22H984.904V1509H894.085ZM984.904 1138.46H1248.88C1311.85 1138.46 1359.48 1123.12 1391.77 1092.44C1424.06 1061.77 1440.21 1019.38 1440.21 965.297C1440.21 912.016 1424.06 870.038 1391.77 839.361C1359.48 808.685 1311.85 793.346 1248.88 793.346H984.904V1138.46ZM1666.57 1509V707.371H1757.39V1063.38H2223.59V707.371H2314.41V1509H2223.59V1151.78H1757.39V1509H1666.57ZM2523.01 1509V707.371H2613.83V1509H2523.01ZM3159.11 1518.69C3079.19 1518.69 3010.17 1500.52 2952.04 1464.2C2893.92 1427.06 2849.11 1377.41 2817.63 1315.25C2786.95 1253.09 2771.62 1184.07 2771.62 1108.19C2771.62 1032.3 2786.95 963.279 2817.63 901.118C2849.11 838.958 2893.92 789.713 2952.04 753.386C3010.17 716.251 3079.19 697.684 3159.11 697.684C3219.66 697.684 3274.15 708.582 3322.58 730.378C3371.02 751.368 3412.19 780.43 3446.1 817.565C3480 854.699 3505.43 897.889 3522.39 947.133H3426.72C3406.54 897.889 3374.65 858.736 3331.06 829.674C3287.47 800.612 3232.57 786.081 3166.38 786.081C3101.79 786.081 3046.49 800.612 3000.48 829.674C2955.27 857.929 2920.96 896.274 2897.55 944.711C2874.14 993.148 2862.44 1047.64 2862.44 1108.19C2862.44 1167.92 2874.14 1222.42 2897.55 1271.66C2920.96 1320.1 2955.27 1358.85 3000.48 1387.91C3046.49 1416.16 3101.79 1430.29 3166.38 1430.29C3232.57 1430.29 3287.47 1415.76 3331.06 1386.7C3374.65 1357.63 3406.54 1318.48 3426.72 1269.24H3522.39C3505.43 1317.67 3480 1360.86 3446.1 1398.81C3412.19 1435.94 3371.02 1465.41 3322.58 1487.2C3274.15 1508.19 3219.66 1518.69 3159.11 1518.69ZM3576.19 1509L3916.46 707.371H4030.28L4370.55 1509H4270.04L4171.96 1276.5H3774.78L3676.69 1509H3576.19ZM3809.89 1192.95H4136.84L3973.37 801.823L3809.89 1192.95Z" fill="white" fill-opacity="0.32"/>
<rect x="132" y="970.375" width="16.3085" height="299" fill="#D9D9D9"/>
<path d="M248.963 1147.15V1207.08C248.963 1211.71 247.503 1215.56 244.583 1218.62C241.734 1221.61 237.746 1223.11 232.618 1223.11C227.063 1223.11 222.754 1221.4 219.692 1217.98C216.701 1214.56 215.205 1209.86 215.205 1203.88H217.342C217.342 1208.86 218.552 1212.99 220.974 1216.27C223.395 1219.55 227.277 1221.18 232.618 1221.18C237.675 1221.18 241.307 1219.8 243.515 1217.02C245.723 1214.17 246.827 1210.86 246.827 1207.08V1147.15H248.963ZM293.167 1223.11C287.826 1223.11 283.019 1221.93 278.745 1219.58C274.472 1217.16 271.089 1213.74 268.597 1209.33C266.175 1204.84 264.964 1199.57 264.964 1193.52C264.964 1187.46 266.175 1182.23 268.597 1177.81C271.089 1173.32 274.472 1169.91 278.745 1167.56C283.019 1165.13 287.826 1163.92 293.167 1163.92C298.509 1163.92 303.316 1165.13 307.589 1167.56C311.863 1169.91 315.21 1173.32 317.632 1177.81C320.053 1182.23 321.264 1187.46 321.264 1193.52C321.264 1199.57 320.053 1204.84 317.632 1209.33C315.21 1213.74 311.863 1217.16 307.589 1219.58C303.316 1221.93 298.509 1223.11 293.167 1223.11ZM293.167 1221.18C297.797 1221.18 302.07 1220.19 305.987 1218.19C309.904 1216.13 313.073 1213.03 315.495 1208.9C317.916 1204.77 319.127 1199.64 319.127 1193.52C319.127 1187.39 317.916 1182.26 315.495 1178.13C313.073 1174 309.904 1170.94 305.987 1168.94C302.07 1166.88 297.797 1165.85 293.167 1165.85C288.538 1165.85 284.229 1166.88 280.241 1168.94C276.324 1170.94 273.155 1174.04 270.733 1178.24C268.312 1182.37 267.101 1187.46 267.101 1193.52C267.101 1199.57 268.312 1204.7 270.733 1208.9C273.155 1213.03 276.324 1216.13 280.241 1218.19C284.229 1220.19 288.538 1221.18 293.167 1221.18ZM338.94 1149.93C338.156 1149.93 337.48 1149.68 336.91 1149.18C336.412 1148.61 336.162 1147.9 336.162 1147.04C336.162 1146.19 336.412 1145.51 336.91 1145.01C337.48 1144.44 338.156 1144.16 338.94 1144.16C339.723 1144.16 340.364 1144.44 340.863 1145.01C341.433 1145.51 341.717 1146.19 341.717 1147.04C341.717 1147.9 341.433 1148.61 340.863 1149.18C340.364 1149.68 339.723 1149.93 338.94 1149.93ZM340.008 1164.67V1222.36H337.872V1164.67H340.008ZM384.068 1163.39C390.834 1163.39 396.389 1165.49 400.734 1169.69C405.078 1173.89 407.25 1180.23 407.25 1188.71V1222.36H405.22V1188.49C405.22 1180.94 403.333 1175.21 399.558 1171.29C395.784 1167.31 390.62 1165.31 384.068 1165.31C377.231 1165.31 371.747 1167.56 367.616 1172.04C363.485 1176.46 361.42 1183.01 361.42 1191.7V1222.36H359.284V1164.67H361.42V1179.84C362.773 1174.5 365.48 1170.44 369.539 1167.66C373.599 1164.81 378.442 1163.39 384.068 1163.39ZM483.559 1223.11C478.217 1223.11 473.41 1221.93 469.136 1219.58C464.863 1217.16 461.48 1213.74 458.988 1209.33C456.566 1204.84 455.355 1199.57 455.355 1193.52C455.355 1187.46 456.566 1182.23 458.988 1177.81C461.48 1173.32 464.863 1169.91 469.136 1167.56C473.41 1165.13 478.217 1163.92 483.559 1163.92C488.9 1163.92 493.707 1165.13 497.981 1167.56C502.254 1169.91 505.601 1173.32 508.023 1177.81C510.444 1182.23 511.655 1187.46 511.655 1193.52C511.655 1199.57 510.444 1204.84 508.023 1209.33C505.601 1213.74 502.254 1217.16 497.981 1219.58C493.707 1221.93 488.9 1223.11 483.559 1223.11ZM483.559 1221.18C488.188 1221.18 492.461 1220.19 496.378 1218.19C500.295 1216.13 503.465 1213.03 505.886 1208.9C508.307 1204.77 509.518 1199.64 509.518 1193.52C509.518 1187.39 508.307 1182.26 505.886 1178.13C503.465 1174 500.295 1170.94 496.378 1168.94C492.461 1166.88 488.188 1165.85 483.559 1165.85C478.929 1165.85 474.62 1166.88 470.632 1168.94C466.715 1170.94 463.546 1174.04 461.124 1178.24C458.703 1182.37 457.492 1187.46 457.492 1193.52C457.492 1199.57 458.703 1204.7 461.124 1208.9C463.546 1213.03 466.715 1216.13 470.632 1218.19C474.62 1220.19 478.929 1221.18 483.559 1221.18ZM575.695 1164.67V1222.36H573.559V1206.66C572.277 1212.14 569.57 1216.31 565.44 1219.15C561.38 1222 556.537 1223.43 550.911 1223.43C544.145 1223.43 538.59 1221.33 534.245 1217.12C529.901 1212.92 527.729 1206.58 527.729 1198.11V1164.67H529.758V1198.32C529.758 1205.87 531.646 1211.64 535.42 1215.63C539.195 1219.55 544.358 1221.5 550.911 1221.5C557.748 1221.5 563.232 1219.3 567.362 1214.88C571.493 1210.39 573.559 1203.81 573.559 1195.12V1164.67H575.695ZM597.089 1178.67C599.368 1168.48 606.953 1163.39 619.844 1163.39V1165.74H618.882C612.828 1165.74 607.665 1167.52 603.392 1171.08C599.19 1174.57 597.089 1180.23 597.089 1188.07V1222.36H594.952V1164.67H597.089V1178.67ZM762.655 1147.69L728.256 1222.36H719.923L712.445 1158.9L681.999 1222.36L673.773 1222.47L666.295 1147.69H674.414L679.862 1212.74L710.522 1147.69H718.962L725.906 1212.96L754.536 1147.69H762.655ZM800.161 1162.96C806.001 1162.96 810.701 1164.56 814.262 1167.77C817.823 1170.97 819.604 1175.71 819.604 1181.98C819.604 1184.26 819.426 1186.32 819.07 1188.17L812.981 1222.36H805.609L811.485 1189.03C811.77 1187.39 811.912 1185.65 811.912 1183.79C811.912 1179.09 810.63 1175.53 808.066 1173.11C805.502 1170.69 801.906 1169.48 797.277 1169.48C791.65 1169.48 786.843 1171.26 782.854 1174.82C778.866 1178.38 776.267 1183.62 775.056 1190.52V1190.42L769.394 1222.36H761.916L775.911 1143.31H783.389L777.94 1173.97C780.433 1170.4 783.638 1167.7 787.555 1165.85C791.472 1163.92 795.674 1162.96 800.161 1162.96ZM832.297 1193.09C833.365 1187.11 835.502 1181.87 838.706 1177.38C841.911 1172.83 845.828 1169.34 850.458 1166.91C855.158 1164.42 860.179 1163.18 865.521 1163.18C871.076 1163.18 875.634 1164.46 879.195 1167.02C882.756 1169.59 885.071 1172.86 886.139 1176.85L888.382 1164.03H895.861L885.605 1222.36H878.127L880.37 1209.43C877.949 1213.42 874.459 1216.73 869.901 1219.37C865.414 1221.93 860.393 1223.21 854.838 1223.21C850.209 1223.21 846.149 1222.25 842.659 1220.33C839.169 1218.41 836.463 1215.7 834.54 1212.21C832.617 1208.65 831.656 1204.48 831.656 1199.71C831.656 1197.65 831.869 1195.44 832.297 1193.09ZM883.255 1193.19C883.611 1191.2 883.789 1189.42 883.789 1187.85C883.789 1182.3 882.115 1177.88 878.768 1174.61C875.42 1171.33 871.076 1169.69 865.734 1169.69C861.604 1169.69 857.722 1170.62 854.09 1172.47C850.529 1174.32 847.502 1177.03 845.009 1180.59C842.517 1184.08 840.843 1188.24 839.988 1193.09C839.632 1195.22 839.454 1197.04 839.454 1198.54C839.454 1204.16 841.092 1208.61 844.368 1211.89C847.716 1215.09 852.06 1216.7 857.402 1216.7C861.39 1216.7 865.2 1215.74 868.833 1213.81C872.536 1211.89 875.634 1209.15 878.127 1205.59C880.691 1202.03 882.4 1197.9 883.255 1193.19ZM916.137 1206.55C915.924 1207.83 915.817 1208.93 915.817 1209.86C915.817 1212.14 916.422 1213.74 917.633 1214.67C918.915 1215.52 920.98 1215.95 923.829 1215.95H930.666L929.491 1222.36H921.479C917.063 1222.36 913.752 1221.5 911.544 1219.8C909.336 1218.09 908.232 1215.27 908.232 1211.36C908.232 1209.79 908.374 1208.19 908.659 1206.55L915.069 1170.33H906.95L908.125 1164.03H916.244L918.808 1149.39H926.286L923.722 1164.03H939.854L938.679 1170.33H922.547L916.137 1206.55ZM962.336 1223.21C956.424 1223.21 951.617 1221.86 947.913 1219.15C944.21 1216.38 942.358 1212.6 942.358 1207.83C942.358 1206.98 942.394 1206.33 942.465 1205.91H949.73C949.445 1209.33 950.442 1212.07 952.721 1214.13C955 1216.2 958.347 1217.23 962.763 1217.23C967.25 1217.23 970.846 1216.31 973.553 1214.45C976.259 1212.53 977.612 1210 977.612 1206.87C977.612 1205.02 977.042 1203.45 975.903 1202.17C974.763 1200.89 973.339 1199.85 971.63 1199.07C969.992 1198.22 967.677 1197.25 964.686 1196.19C960.982 1194.83 957.991 1193.59 955.712 1192.45C953.504 1191.24 951.581 1189.6 949.943 1187.53C948.376 1185.4 947.593 1182.73 947.593 1179.52C947.593 1176.32 948.519 1173.47 950.371 1170.97C952.222 1168.48 954.751 1166.56 957.955 1165.21C961.232 1163.85 964.935 1163.18 969.066 1163.18C974.835 1163.18 979.535 1164.6 983.167 1167.45C986.871 1170.3 988.723 1174.07 988.723 1178.77C988.723 1179.77 988.687 1180.52 988.616 1181.02H981.565C981.636 1180.73 981.672 1180.27 981.672 1179.63C981.672 1176.49 980.425 1173.97 977.933 1172.04C975.511 1170.12 972.378 1169.16 968.532 1169.16C964.686 1169.16 961.481 1170.08 958.917 1171.94C956.424 1173.72 955.178 1176.14 955.178 1179.2C955.178 1181.27 955.783 1183.01 956.994 1184.43C958.205 1185.79 959.7 1186.89 961.481 1187.75C963.261 1188.6 965.647 1189.6 968.638 1190.74C972.199 1192.09 975.048 1193.34 977.185 1194.48C979.393 1195.62 981.244 1197.18 982.74 1199.18C984.236 1201.17 984.983 1203.66 984.983 1206.66C984.983 1211.71 982.882 1215.74 978.681 1218.73C974.479 1221.72 969.03 1223.21 962.336 1223.21ZM1044.89 1204.63H1010.81L1001.2 1222.36H993.291L1033.57 1148.65H1042.01L1056.11 1222.36H1048.2L1044.89 1204.63ZM1043.71 1198.64L1036.13 1157.94L1014.02 1198.64H1043.71ZM1084.67 1176.85C1087.09 1172.93 1090.54 1169.69 1095.03 1167.13C1099.59 1164.49 1104.61 1163.18 1110.09 1163.18C1117.14 1163.18 1122.77 1165.28 1126.97 1169.48C1131.25 1173.61 1133.38 1179.27 1133.38 1186.46C1133.38 1188.53 1133.17 1190.74 1132.74 1193.09C1131.67 1199.07 1129.54 1204.34 1126.33 1208.9C1123.13 1213.46 1119.17 1216.98 1114.47 1219.47C1109.84 1221.97 1104.86 1223.21 1099.52 1223.21C1094.03 1223.21 1089.51 1221.93 1085.95 1219.37C1082.39 1216.73 1080 1213.46 1078.79 1209.54L1071.74 1249.92H1064.26L1079.43 1164.03H1086.91L1084.67 1176.85ZM1125.16 1193.09C1125.51 1190.95 1125.69 1189.14 1125.69 1187.64C1125.69 1182.01 1124.02 1177.63 1120.67 1174.5C1117.39 1171.29 1113.05 1169.69 1107.64 1169.69C1103.65 1169.69 1099.84 1170.65 1096.21 1172.58C1092.57 1174.5 1089.47 1177.24 1086.91 1180.8C1084.35 1184.36 1082.64 1188.49 1081.78 1193.19C1081.43 1195.19 1081.25 1196.97 1081.25 1198.54C1081.25 1204.09 1082.92 1208.51 1086.27 1211.78C1089.62 1215.06 1093.96 1216.7 1099.3 1216.7C1103.43 1216.7 1107.28 1215.77 1110.84 1213.92C1114.47 1212 1117.54 1209.25 1120.03 1205.69C1122.59 1202.06 1124.3 1197.86 1125.16 1193.09ZM1157.83 1176.85C1160.25 1172.93 1163.7 1169.69 1168.19 1167.13C1172.75 1164.49 1177.77 1163.18 1183.25 1163.18C1190.3 1163.18 1195.93 1165.28 1200.13 1169.48C1204.4 1173.61 1206.54 1179.27 1206.54 1186.46C1206.54 1188.53 1206.33 1190.74 1205.9 1193.09C1204.83 1199.07 1202.69 1204.34 1199.49 1208.9C1196.28 1213.46 1192.33 1216.98 1187.63 1219.47C1183 1221.97 1178.02 1223.21 1172.67 1223.21C1167.19 1223.21 1162.67 1221.93 1159.11 1219.37C1155.55 1216.73 1153.16 1213.46 1151.95 1209.54L1144.9 1249.92H1137.42L1152.59 1164.03H1160.07L1157.83 1176.85ZM1198.31 1193.09C1198.67 1190.95 1198.85 1189.14 1198.85 1187.64C1198.85 1182.01 1197.17 1177.63 1193.83 1174.5C1190.55 1171.29 1186.21 1169.69 1180.79 1169.69C1176.81 1169.69 1173 1170.65 1169.36 1172.58C1165.73 1174.5 1162.63 1177.24 1160.07 1180.8C1157.5 1184.36 1155.8 1188.49 1154.94 1193.19C1154.58 1195.19 1154.41 1196.97 1154.41 1198.54C1154.41 1204.09 1156.08 1208.51 1159.43 1211.78C1162.78 1215.06 1167.12 1216.7 1172.46 1216.7C1176.59 1216.7 1180.44 1215.77 1184 1213.92C1187.63 1212 1190.69 1209.25 1193.19 1205.69C1195.75 1202.06 1197.46 1197.86 1198.31 1193.09ZM1249.78 1193.19C1250.85 1187.14 1252.98 1181.87 1256.19 1177.38C1259.46 1172.83 1263.45 1169.34 1268.15 1166.91C1272.85 1164.42 1277.94 1163.18 1283.43 1163.18C1290.62 1163.18 1296.21 1164.96 1300.2 1168.52C1304.26 1172.08 1306.43 1176.92 1306.72 1183.05H1298.7C1298.49 1178.84 1296.92 1175.57 1294 1173.22C1291.16 1170.8 1287.27 1169.59 1282.36 1169.59C1276.31 1169.59 1270.96 1171.65 1266.34 1175.78C1261.78 1179.84 1258.82 1185.65 1257.47 1193.19C1257.11 1194.98 1256.93 1197.01 1256.93 1199.28C1256.93 1204.98 1258.47 1209.36 1261.53 1212.42C1264.66 1215.42 1268.79 1216.91 1273.92 1216.91C1278.91 1216.91 1283.25 1215.74 1286.95 1213.39C1290.66 1210.96 1293.4 1207.62 1295.18 1203.34H1303.19C1300.77 1209.33 1296.89 1214.13 1291.55 1217.77C1286.21 1221.4 1279.97 1223.21 1272.85 1223.21C1265.66 1223.21 1259.89 1221.15 1255.55 1217.02C1251.27 1212.89 1249.14 1207.23 1249.14 1200.03C1249.14 1197.82 1249.35 1195.55 1249.78 1193.19ZM1340.29 1223.21C1335.45 1223.21 1331.18 1222.25 1327.47 1220.33C1323.77 1218.34 1320.88 1215.56 1318.82 1212C1316.82 1208.36 1315.83 1204.13 1315.83 1199.28C1315.83 1192.73 1317.32 1186.71 1320.31 1181.23C1323.31 1175.67 1327.47 1171.29 1332.81 1168.09C1338.16 1164.81 1344.1 1163.18 1350.65 1163.18C1355.5 1163.18 1359.77 1164.17 1363.47 1166.17C1367.18 1168.09 1370.06 1170.87 1372.13 1174.5C1374.19 1178.06 1375.23 1182.26 1375.23 1187.11C1375.23 1193.73 1373.69 1199.78 1370.63 1205.27C1367.57 1210.75 1363.37 1215.13 1358.03 1218.41C1352.76 1221.61 1346.84 1223.21 1340.29 1223.21ZM1341.15 1216.91C1346.2 1216.91 1350.73 1215.56 1354.71 1212.85C1358.77 1210.15 1361.91 1206.55 1364.11 1202.06C1366.39 1197.57 1367.53 1192.73 1367.53 1187.53C1367.53 1181.69 1365.82 1177.24 1362.41 1174.18C1359.06 1171.12 1354.79 1169.59 1349.59 1169.59C1344.53 1169.59 1340.01 1170.94 1336.02 1173.64C1332.1 1176.35 1329.04 1179.95 1326.83 1184.43C1324.62 1188.92 1323.52 1193.76 1323.52 1198.96C1323.52 1204.73 1325.19 1209.18 1328.54 1212.32C1331.89 1215.38 1336.09 1216.91 1341.15 1216.91ZM1464.28 1162.96C1470.12 1162.96 1474.78 1164.56 1478.27 1167.77C1481.83 1170.97 1483.62 1175.67 1483.62 1181.87C1483.62 1183.79 1483.4 1185.89 1482.97 1188.17L1476.88 1222.36H1469.51L1475.5 1189.03C1475.85 1186.89 1476.03 1185.11 1476.03 1183.69C1476.03 1179.06 1474.78 1175.53 1472.29 1173.11C1469.8 1170.69 1466.27 1169.48 1461.71 1169.48C1456.66 1169.48 1452.21 1171.08 1448.36 1174.29C1444.59 1177.49 1441.95 1182.12 1440.46 1188.17L1434.26 1222.36H1426.89L1432.87 1189.03C1433.23 1186.89 1433.4 1185.11 1433.4 1183.69C1433.4 1179.06 1432.16 1175.53 1429.67 1173.11C1427.17 1170.69 1423.68 1169.48 1419.2 1169.48C1413.78 1169.48 1409.12 1171.26 1405.2 1174.82C1401.28 1178.31 1398.69 1183.37 1397.4 1189.99L1391.74 1222.36H1384.26L1394.52 1164.03H1402L1400.18 1174.18C1402.6 1170.55 1405.7 1167.77 1409.48 1165.85C1413.32 1163.92 1417.38 1162.96 1421.65 1162.96C1426.71 1162.96 1430.91 1164.17 1434.26 1166.59C1437.61 1169.02 1439.71 1172.58 1440.56 1177.28C1442.91 1172.65 1446.22 1169.12 1450.5 1166.7C1454.77 1164.21 1459.36 1162.96 1464.28 1162.96ZM1574.58 1162.96C1580.42 1162.96 1585.08 1164.56 1588.57 1167.77C1592.13 1170.97 1593.91 1175.67 1593.91 1181.87C1593.91 1183.79 1593.7 1185.89 1593.27 1188.17L1587.18 1222.36H1579.81L1585.79 1189.03C1586.15 1186.89 1586.33 1185.11 1586.33 1183.69C1586.33 1179.06 1585.08 1175.53 1582.59 1173.11C1580.1 1170.69 1576.57 1169.48 1572.01 1169.48C1566.96 1169.48 1562.5 1171.08 1558.66 1174.29C1554.88 1177.49 1552.25 1182.12 1550.75 1188.17L1544.56 1222.36H1537.19L1543.17 1189.03C1543.52 1186.89 1543.7 1185.11 1543.7 1183.69C1543.7 1179.06 1542.46 1175.53 1539.96 1173.11C1537.47 1170.69 1533.98 1169.48 1529.49 1169.48C1524.08 1169.48 1519.42 1171.26 1515.5 1174.82C1511.58 1178.31 1508.98 1183.37 1507.7 1189.99L1502.04 1222.36H1494.56L1504.82 1164.03H1512.29L1510.48 1174.18C1512.9 1170.55 1516 1167.77 1519.77 1165.85C1523.62 1163.92 1527.68 1162.96 1531.95 1162.96C1537.01 1162.96 1541.21 1164.17 1544.56 1166.59C1547.9 1169.02 1550.01 1172.58 1550.86 1177.28C1553.21 1172.65 1556.52 1169.12 1560.8 1166.7C1565.07 1164.21 1569.66 1162.96 1574.58 1162.96ZM1665.64 1164.03L1655.39 1222.36H1647.91L1649.73 1212.1C1647.31 1215.74 1644.17 1218.51 1640.33 1220.44C1636.48 1222.36 1632.35 1223.32 1627.93 1223.32C1621.95 1223.32 1617.14 1221.72 1613.51 1218.51C1609.88 1215.24 1608.06 1210.5 1608.06 1204.31C1608.06 1202.03 1608.24 1199.96 1608.6 1198.11L1614.58 1164.03H1621.95L1616.08 1197.25C1615.79 1198.89 1615.65 1200.6 1615.65 1202.38C1615.65 1207.08 1616.93 1210.68 1619.49 1213.17C1622.13 1215.59 1625.76 1216.8 1630.39 1216.8C1635.8 1216.8 1640.47 1215.17 1644.39 1211.89C1648.3 1208.54 1650.94 1203.66 1652.29 1197.25L1658.17 1164.03H1665.64ZM1711.46 1162.96C1717.44 1162.96 1722.21 1164.6 1725.77 1167.88C1729.4 1171.08 1731.22 1175.78 1731.22 1181.98C1731.22 1184.26 1731.04 1186.32 1730.68 1188.17L1724.6 1222.36H1717.22L1723.1 1189.03C1723.38 1187.39 1723.53 1185.65 1723.53 1183.79C1723.53 1179.09 1722.24 1175.53 1719.68 1173.11C1717.12 1170.69 1713.52 1169.48 1708.89 1169.48C1703.26 1169.48 1698.46 1171.26 1694.47 1174.82C1690.48 1178.38 1687.88 1183.62 1686.67 1190.52V1190.2L1681.01 1222.36H1673.53L1683.79 1164.03H1691.26L1689.45 1174.07C1691.94 1170.51 1695.11 1167.77 1698.96 1165.85C1702.8 1163.92 1706.97 1162.96 1711.46 1162.96ZM1758.23 1153.03C1756.87 1153.03 1755.77 1152.63 1754.91 1151.85C1754.06 1151 1753.63 1149.89 1753.63 1148.54C1753.63 1146.69 1754.27 1145.16 1755.56 1143.95C1756.84 1142.66 1758.37 1142.02 1760.15 1142.02C1761.5 1142.02 1762.57 1142.41 1763.35 1143.2C1764.21 1143.98 1764.64 1145.01 1764.64 1146.3C1764.64 1148.15 1764 1149.75 1762.71 1151.1C1761.43 1152.39 1759.94 1153.03 1758.23 1153.03ZM1759.94 1164.03L1749.68 1222.36H1742.2L1752.46 1164.03H1759.94ZM1780.07 1206.55C1779.86 1207.83 1779.75 1208.93 1779.75 1209.86C1779.75 1212.14 1780.36 1213.74 1781.57 1214.67C1782.85 1215.52 1784.92 1215.95 1787.77 1215.95H1794.6L1793.43 1222.36H1785.42C1781 1222.36 1777.69 1221.5 1775.48 1219.8C1773.27 1218.09 1772.17 1215.27 1772.17 1211.36C1772.17 1209.79 1772.31 1208.19 1772.6 1206.55L1779.01 1170.33H1770.89L1772.06 1164.03H1780.18L1782.75 1149.39H1790.22L1787.66 1164.03H1803.79L1802.62 1170.33H1786.48L1780.07 1206.55ZM1818.47 1164.03L1829.48 1213.49L1857.36 1164.03H1865.16L1815.48 1249.81H1807.58L1823.82 1221.93L1810.14 1164.03H1818.47Z" fill="white"/>
<path d="M257.83 1023.79V1025.71H223.217V1060.43H254.625V1062.36H223.217V1099H221.081V1023.79H257.83ZM297.758 1099.75C292.416 1099.75 287.609 1098.57 283.336 1096.22C279.063 1093.8 275.68 1090.38 273.187 1085.97C270.765 1081.48 269.555 1076.21 269.555 1070.16C269.555 1064.1 270.765 1058.87 273.187 1054.45C275.68 1049.97 279.063 1046.55 283.336 1044.2C287.609 1041.77 292.416 1040.56 297.758 1040.56C303.099 1040.56 307.907 1041.77 312.18 1044.2C316.453 1046.55 319.8 1049.97 322.222 1054.45C324.643 1058.87 325.854 1064.1 325.854 1070.16C325.854 1076.21 324.643 1081.48 322.222 1085.97C319.8 1090.38 316.453 1093.8 312.18 1096.22C307.907 1098.57 303.099 1099.75 297.758 1099.75ZM297.758 1097.82C302.387 1097.82 306.66 1096.83 310.577 1094.83C314.494 1092.77 317.664 1089.67 320.085 1085.54C322.507 1081.41 323.717 1076.28 323.717 1070.16C323.717 1064.03 322.507 1058.9 320.085 1054.77C317.664 1050.64 314.494 1047.58 310.577 1045.58C306.66 1043.52 302.387 1042.49 297.758 1042.49C293.128 1042.49 288.82 1043.52 284.831 1045.58C280.914 1047.58 277.745 1050.68 275.323 1054.88C272.902 1059.01 271.691 1064.1 271.691 1070.16C271.691 1076.21 272.902 1081.34 275.323 1085.54C277.745 1089.67 280.914 1092.77 284.831 1094.83C288.82 1096.83 293.128 1097.82 297.758 1097.82ZM344.599 1019.95V1099H342.462V1019.95H344.599ZM366.01 1019.95V1099H363.874V1019.95H366.01ZM410.818 1099.75C405.477 1099.75 400.669 1098.57 396.396 1096.22C392.123 1093.8 388.74 1090.38 386.247 1085.97C383.826 1081.48 382.615 1076.21 382.615 1070.16C382.615 1064.1 383.826 1058.87 386.247 1054.45C388.74 1049.97 392.123 1046.55 396.396 1044.2C400.669 1041.77 405.477 1040.56 410.818 1040.56C416.16 1040.56 420.967 1041.77 425.24 1044.2C429.513 1046.55 432.861 1049.97 435.282 1054.45C437.704 1058.87 438.914 1064.1 438.914 1070.16C438.914 1076.21 437.704 1081.48 435.282 1085.97C432.861 1090.38 429.513 1093.8 425.24 1096.22C420.967 1098.57 416.16 1099.75 410.818 1099.75ZM410.818 1097.82C415.447 1097.82 419.721 1096.83 423.638 1094.83C427.555 1092.77 430.724 1089.67 433.146 1085.54C435.567 1081.41 436.778 1076.28 436.778 1070.16C436.778 1064.03 435.567 1058.9 433.146 1054.77C430.724 1050.64 427.555 1047.58 423.638 1045.58C419.721 1043.52 415.447 1042.49 410.818 1042.49C406.189 1042.49 401.88 1043.52 397.892 1045.58C393.975 1047.58 390.805 1050.68 388.384 1054.88C385.962 1059.01 384.752 1064.1 384.752 1070.16C384.752 1076.21 385.962 1081.34 388.384 1085.54C390.805 1089.67 393.975 1092.77 397.892 1094.83C401.88 1096.83 406.189 1097.82 410.818 1097.82ZM530.09 1041.31L511.929 1099H510.326L489.281 1045.26L468.342 1099H466.739L448.578 1041.31H450.822L467.701 1095.15L488.533 1041.31H490.135L510.967 1095.15L527.846 1041.31H530.09ZM621.832 1041.31V1099H619.696V1083.3C618.414 1088.78 615.708 1092.95 611.577 1095.8C607.517 1098.64 602.674 1100.07 597.048 1100.07C590.282 1100.07 584.727 1097.97 580.382 1093.77C576.038 1089.56 573.866 1083.22 573.866 1074.75V1041.31H575.896V1074.96C575.896 1082.51 577.783 1088.28 581.558 1092.27C585.332 1096.19 590.496 1098.15 597.048 1098.15C603.885 1098.15 609.369 1095.94 613.5 1091.52C617.63 1087.04 619.696 1080.45 619.696 1071.76V1041.31H621.832ZM659.678 1099.75C653.339 1099.75 648.211 1098.47 644.294 1095.9C640.448 1093.34 638.205 1089.46 637.564 1084.26H639.701C640.128 1088.53 642.015 1091.88 645.363 1094.3C648.781 1096.65 653.588 1097.82 659.785 1097.82C662.918 1097.82 665.66 1097.22 668.011 1096.01C670.432 1094.8 672.284 1093.2 673.566 1091.2C674.848 1089.14 675.489 1086.93 675.489 1084.58C675.489 1082.01 674.741 1079.95 673.245 1078.38C671.821 1076.74 670.005 1075.5 667.797 1074.64C665.66 1073.79 662.705 1072.86 658.93 1071.87C654.728 1070.8 651.309 1069.73 648.674 1068.66C646.11 1067.59 643.903 1065.95 642.051 1063.75C640.27 1061.54 639.38 1058.62 639.38 1054.99C639.38 1052.42 640.164 1050.04 641.73 1047.83C643.297 1045.62 645.434 1043.88 648.14 1042.59C650.918 1041.24 654.016 1040.56 657.434 1040.56C663.274 1040.56 667.975 1042.02 671.536 1044.94C675.097 1047.86 677.02 1051.92 677.305 1057.12H675.168C674.954 1052.85 673.316 1049.36 670.254 1046.65C667.263 1043.88 662.99 1042.49 657.434 1042.49C654.443 1042.49 651.737 1043.06 649.315 1044.2C646.894 1045.34 644.971 1046.87 643.546 1048.79C642.193 1050.71 641.517 1052.78 641.517 1054.99C641.517 1058.12 642.336 1060.65 643.974 1062.57C645.612 1064.49 647.606 1065.92 649.956 1066.84C652.378 1067.77 655.583 1068.77 659.571 1069.84C663.631 1070.97 666.8 1072.01 669.079 1072.93C671.429 1073.86 673.423 1075.28 675.061 1077.21C676.699 1079.06 677.518 1081.52 677.518 1084.58C677.518 1087.43 676.735 1090.03 675.168 1092.38C673.601 1094.66 671.465 1096.47 668.758 1097.82C666.052 1099.11 663.025 1099.75 659.678 1099.75ZM751.385 1099.75C746.043 1099.75 741.236 1098.57 736.963 1096.22C732.689 1093.8 729.306 1090.38 726.814 1085.97C724.392 1081.48 723.182 1076.21 723.182 1070.16C723.182 1064.1 724.392 1058.87 726.814 1054.45C729.306 1049.97 732.689 1046.55 736.963 1044.2C741.236 1041.77 746.043 1040.56 751.385 1040.56C756.726 1040.56 761.534 1041.77 765.807 1044.2C770.08 1046.55 773.427 1049.97 775.849 1054.45C778.27 1058.87 779.481 1064.1 779.481 1070.16C779.481 1076.21 778.27 1081.48 775.849 1085.97C773.427 1090.38 770.08 1093.8 765.807 1096.22C761.534 1098.57 756.726 1099.75 751.385 1099.75ZM751.385 1097.82C756.014 1097.82 760.287 1096.83 764.204 1094.83C768.121 1092.77 771.291 1089.67 773.712 1085.54C776.134 1081.41 777.344 1076.28 777.344 1070.16C777.344 1064.03 776.134 1058.9 773.712 1054.77C771.291 1050.64 768.121 1047.58 764.204 1045.58C760.287 1043.52 756.014 1042.49 751.385 1042.49C746.755 1042.49 742.447 1043.52 738.458 1045.58C734.541 1047.58 731.372 1050.68 728.95 1054.88C726.529 1059.01 725.318 1064.1 725.318 1070.16C725.318 1076.21 726.529 1081.34 728.95 1085.54C731.372 1089.67 734.541 1092.77 738.458 1094.83C742.447 1096.83 746.755 1097.82 751.385 1097.82ZM820.873 1040.03C827.639 1040.03 833.194 1042.13 837.539 1046.33C841.883 1050.53 844.056 1056.87 844.056 1065.35V1099H842.026V1065.13C842.026 1057.59 840.138 1051.85 836.364 1047.94C832.589 1043.95 827.426 1041.95 820.873 1041.95C814.036 1041.95 808.552 1044.2 804.422 1048.68C800.291 1053.1 798.225 1059.65 798.225 1068.34V1099H796.089V1041.31H798.225V1056.48C799.579 1051.14 802.285 1047.08 806.345 1044.3C810.404 1041.45 815.247 1040.03 820.873 1040.03ZM907.905 1024.33L894.765 1099H887.287L900.427 1024.33H907.905ZM950.692 1039.6C956.674 1039.6 961.446 1041.24 965.007 1044.52C968.639 1047.72 970.455 1052.42 970.455 1058.62C970.455 1060.9 970.277 1062.96 969.921 1064.81L963.832 1099H956.461L962.336 1065.67C962.621 1064.03 962.764 1062.29 962.764 1060.43C962.764 1055.73 961.482 1052.17 958.918 1049.75C956.354 1047.33 952.757 1046.12 948.128 1046.12C942.502 1046.12 937.694 1047.9 933.706 1051.46C929.718 1055.02 927.118 1060.26 925.907 1067.16V1066.84L920.245 1099H912.767L923.023 1040.67H930.501L928.685 1050.71C931.178 1047.15 934.347 1044.41 938.193 1042.49C942.039 1040.56 946.205 1039.6 950.692 1039.6ZM1000.88 1099.85C994.971 1099.85 990.163 1098.5 986.46 1095.8C982.756 1093.02 980.905 1089.24 980.905 1084.47C980.905 1083.62 980.94 1082.98 981.012 1082.55H988.276C987.991 1085.97 988.988 1088.71 991.267 1090.77C993.546 1092.84 996.894 1093.87 1001.31 1093.87C1005.8 1093.87 1009.39 1092.95 1012.1 1091.09C1014.81 1089.17 1016.16 1086.64 1016.16 1083.51C1016.16 1081.66 1015.59 1080.09 1014.45 1078.81C1013.31 1077.53 1011.89 1076.49 1010.18 1075.71C1008.54 1074.86 1006.22 1073.89 1003.23 1072.83C999.529 1071.47 996.538 1070.23 994.259 1069.09C992.051 1067.88 990.128 1066.24 988.49 1064.17C986.923 1062.04 986.139 1059.37 986.139 1056.16C986.139 1052.96 987.065 1050.11 988.917 1047.61C990.769 1045.12 993.297 1043.2 996.502 1041.85C999.778 1040.49 1003.48 1039.82 1007.61 1039.82C1013.38 1039.82 1018.08 1041.24 1021.71 1044.09C1025.42 1046.94 1027.27 1050.71 1027.27 1055.41C1027.27 1056.41 1027.23 1057.16 1027.16 1057.66H1020.11C1020.18 1057.37 1020.22 1056.91 1020.22 1056.27C1020.22 1053.13 1018.97 1050.61 1016.48 1048.68C1014.06 1046.76 1010.92 1045.8 1007.08 1045.8C1003.23 1045.8 1000.03 1046.72 997.463 1048.58C994.971 1050.36 993.724 1052.78 993.724 1055.84C993.724 1057.91 994.33 1059.65 995.54 1061.08C996.751 1062.43 998.247 1063.53 1000.03 1064.39C1001.81 1065.24 1004.19 1066.24 1007.18 1067.38C1010.75 1068.73 1013.59 1069.98 1015.73 1071.12C1017.94 1072.26 1019.79 1073.82 1021.29 1075.82C1022.78 1077.81 1023.53 1080.3 1023.53 1083.3C1023.53 1088.35 1021.43 1092.38 1017.23 1095.37C1013.02 1098.36 1007.58 1099.85 1000.88 1099.85ZM1049.36 1083.19C1049.14 1084.47 1049.04 1085.58 1049.04 1086.5C1049.04 1088.78 1049.64 1090.38 1050.85 1091.31C1052.14 1092.16 1054.2 1092.59 1057.05 1092.59H1063.89L1062.71 1099H1054.7C1050.28 1099 1046.97 1098.15 1044.76 1096.44C1042.56 1094.73 1041.45 1091.91 1041.45 1088C1041.45 1086.43 1041.59 1084.83 1041.88 1083.19L1048.29 1046.97H1040.17L1041.35 1040.67H1049.46L1052.03 1026.04H1059.51L1056.94 1040.67H1073.07L1071.9 1046.97H1055.77L1049.36 1083.19ZM1077.82 1069.73C1078.89 1063.75 1081.03 1058.51 1084.23 1054.02C1087.44 1049.47 1091.35 1045.98 1095.98 1043.56C1100.68 1041.06 1105.7 1039.82 1111.05 1039.82C1116.6 1039.82 1121.16 1041.1 1124.72 1043.66C1128.28 1046.23 1130.6 1049.5 1131.66 1053.49L1133.91 1040.67H1141.39L1131.13 1099H1123.65L1125.9 1086.07C1123.47 1090.06 1119.98 1093.37 1115.43 1096.01C1110.94 1098.57 1105.92 1099.85 1100.36 1099.85C1095.73 1099.85 1091.67 1098.89 1088.18 1096.97C1084.69 1095.05 1081.99 1092.34 1080.07 1088.85C1078.14 1085.29 1077.18 1081.12 1077.18 1076.35C1077.18 1074.29 1077.39 1072.08 1077.82 1069.73ZM1128.78 1069.84C1129.14 1067.84 1129.31 1066.06 1129.31 1064.49C1129.31 1058.94 1127.64 1054.52 1124.29 1051.25C1120.95 1047.97 1116.6 1046.33 1111.26 1046.33C1107.13 1046.33 1103.25 1047.26 1099.62 1049.11C1096.05 1050.96 1093.03 1053.67 1090.53 1057.23C1088.04 1060.72 1086.37 1064.89 1085.51 1069.73C1085.16 1071.87 1084.98 1073.68 1084.98 1075.18C1084.98 1080.8 1086.62 1085.25 1089.89 1088.53C1093.24 1091.74 1097.59 1093.34 1102.93 1093.34C1106.92 1093.34 1110.73 1092.38 1114.36 1090.45C1118.06 1088.53 1121.16 1085.79 1123.65 1082.23C1126.22 1078.67 1127.93 1074.54 1128.78 1069.84ZM1184.2 1039.82C1189.69 1039.82 1194.21 1041.1 1197.77 1043.66C1201.4 1046.23 1203.75 1049.47 1204.82 1053.38L1207.07 1040.67H1214.54L1204.07 1100.5C1203.15 1105.84 1201.15 1110.57 1198.09 1114.7C1195.1 1118.83 1191.33 1122 1186.77 1124.21C1182.21 1126.49 1177.3 1127.63 1172.03 1127.63C1164.55 1127.63 1158.64 1125.85 1154.29 1122.29C1150.02 1118.73 1147.81 1113.88 1147.67 1107.76H1155.04C1155.61 1111.82 1157.46 1115.06 1160.59 1117.48C1163.73 1119.9 1167.93 1121.11 1173.2 1121.11C1178.97 1121.11 1184.03 1119.26 1188.37 1115.56C1192.71 1111.93 1195.46 1106.91 1196.6 1100.5L1199.05 1086.07C1196.63 1090.06 1193.14 1093.37 1188.58 1096.01C1184.1 1098.57 1179.11 1099.85 1173.63 1099.85C1166.58 1099.85 1160.91 1097.75 1156.64 1093.55C1152.44 1089.28 1150.34 1083.55 1150.34 1076.35C1150.34 1074.29 1150.55 1072.08 1150.98 1069.73C1152.05 1063.75 1154.18 1058.51 1157.39 1054.02C1160.59 1049.47 1164.51 1045.98 1169.14 1043.56C1173.84 1041.06 1178.86 1039.82 1184.2 1039.82ZM1201.94 1069.84C1202.29 1067.84 1202.47 1066.06 1202.47 1064.49C1202.47 1058.94 1200.8 1054.52 1197.45 1051.25C1194.1 1047.97 1189.76 1046.33 1184.42 1046.33C1180.29 1046.33 1176.41 1047.26 1172.77 1049.11C1169.21 1050.96 1166.19 1053.67 1163.69 1057.23C1161.2 1060.72 1159.53 1064.89 1158.67 1069.73C1158.32 1071.87 1158.14 1073.68 1158.14 1075.18C1158.14 1080.8 1159.78 1085.25 1163.05 1088.53C1166.4 1091.74 1170.74 1093.34 1176.08 1093.34C1180.07 1093.34 1183.88 1092.38 1187.52 1090.45C1191.22 1088.53 1194.32 1085.79 1196.81 1082.23C1199.37 1078.67 1201.08 1074.54 1201.94 1069.84ZM1238.13 1052.32C1240.48 1048.26 1243.54 1045.12 1247.32 1042.91C1251.09 1040.71 1255.47 1039.6 1260.46 1039.6L1259.07 1047.4H1256.93C1251.81 1047.4 1247.39 1048.72 1243.69 1051.35C1239.98 1053.99 1237.42 1058.33 1236 1064.39L1229.91 1099H1222.43L1232.68 1040.67H1240.16L1238.13 1052.32ZM1263.91 1069.73C1264.98 1063.75 1267.12 1058.51 1270.32 1054.02C1273.53 1049.47 1277.44 1045.98 1282.07 1043.56C1286.77 1041.06 1291.79 1039.82 1297.13 1039.82C1302.69 1039.82 1307.25 1041.1 1310.81 1043.66C1314.37 1046.23 1316.68 1049.5 1317.75 1053.49L1320 1040.67H1327.47L1317.22 1099H1309.74L1311.98 1086.07C1309.56 1090.06 1306.07 1093.37 1301.51 1096.01C1297.03 1098.57 1292.01 1099.85 1286.45 1099.85C1281.82 1099.85 1277.76 1098.89 1274.27 1096.97C1270.78 1095.05 1268.08 1092.34 1266.15 1088.85C1264.23 1085.29 1263.27 1081.12 1263.27 1076.35C1263.27 1074.29 1263.48 1072.08 1263.91 1069.73ZM1314.87 1069.84C1315.22 1067.84 1315.4 1066.06 1315.4 1064.49C1315.4 1058.94 1313.73 1054.52 1310.38 1051.25C1307.03 1047.97 1302.69 1046.33 1297.35 1046.33C1293.22 1046.33 1289.34 1047.26 1285.7 1049.11C1282.14 1050.96 1279.12 1053.67 1276.62 1057.23C1274.13 1060.72 1272.46 1064.89 1271.6 1069.73C1271.25 1071.87 1271.07 1073.68 1271.07 1075.18C1271.07 1080.8 1272.71 1085.25 1275.98 1088.53C1279.33 1091.74 1283.67 1093.34 1289.02 1093.34C1293 1093.34 1296.81 1092.38 1300.45 1090.45C1304.15 1088.53 1307.25 1085.79 1309.74 1082.23C1312.3 1078.67 1314.01 1074.54 1314.87 1069.84ZM1415.37 1039.6C1421.21 1039.6 1425.88 1041.2 1429.37 1044.41C1432.93 1047.61 1434.71 1052.32 1434.71 1058.51C1434.71 1060.43 1434.5 1062.54 1434.07 1064.81L1427.98 1099H1420.61L1426.59 1065.67C1426.95 1063.53 1427.13 1061.75 1427.13 1060.33C1427.13 1055.7 1425.88 1052.17 1423.39 1049.75C1420.89 1047.33 1417.37 1046.12 1412.81 1046.12C1407.75 1046.12 1403.3 1047.72 1399.46 1050.93C1395.68 1054.13 1393.05 1058.76 1391.55 1064.81L1385.36 1099H1377.98L1383.97 1065.67C1384.32 1063.53 1384.5 1061.75 1384.5 1060.33C1384.5 1055.7 1383.25 1052.17 1380.76 1049.75C1378.27 1047.33 1374.78 1046.12 1370.29 1046.12C1364.88 1046.12 1360.21 1047.9 1356.3 1051.46C1352.38 1054.95 1349.78 1060.01 1348.5 1066.63L1342.84 1099H1335.36L1345.61 1040.67H1353.09L1351.28 1050.82C1353.7 1047.19 1356.8 1044.41 1360.57 1042.49C1364.42 1040.56 1368.48 1039.6 1372.75 1039.6C1377.81 1039.6 1382.01 1040.81 1385.36 1043.23C1388.7 1045.66 1390.8 1049.22 1391.66 1053.92C1394.01 1049.29 1397.32 1045.76 1401.59 1043.34C1405.87 1040.85 1410.46 1039.6 1415.37 1039.6Z" fill="white"/>
<g filter="url(#filter0_d_2215_370)">
<path d="M175.775 380.254C164.006 380.254 154.993 376.902 148.736 370.198C142.628 363.495 139.574 354.035 139.574 341.819V257.799C139.574 245.583 142.628 236.123 148.736 229.419C154.993 222.716 164.006 219.364 175.775 219.364C187.543 219.364 196.482 222.716 202.59 229.419C208.846 236.123 211.975 245.583 211.975 257.799V274.335H188.735V256.234C188.735 246.551 184.638 241.71 176.445 241.71C168.251 241.71 164.155 246.551 164.155 256.234V343.607C164.155 353.141 168.251 357.908 176.445 357.908C184.638 357.908 188.735 353.141 188.735 343.607V319.697H211.975V341.819C211.975 354.035 208.846 363.495 202.59 370.198C196.482 376.902 187.543 380.254 175.775 380.254ZM258.178 380.254C246.112 380.254 236.875 376.828 230.47 369.975C224.064 363.122 220.861 353.439 220.861 340.925V258.692C220.861 246.179 224.064 236.496 230.47 229.643C236.875 222.79 246.112 219.364 258.178 219.364C270.245 219.364 279.482 222.79 285.887 229.643C292.293 236.496 295.496 246.179 295.496 258.692V340.925C295.496 353.439 292.293 363.122 285.887 369.975C279.482 376.828 270.245 380.254 258.178 380.254ZM258.178 357.908C266.67 357.908 270.916 352.769 270.916 342.49V257.128C270.916 246.849 266.67 241.71 258.178 241.71C249.687 241.71 245.441 246.849 245.441 257.128V342.49C245.441 352.769 249.687 357.908 258.178 357.908ZM307.65 221.598H338.487L362.398 315.228H362.844V221.598H384.743V378.02H359.493L329.996 263.832H329.549V378.02H307.65V221.598ZM417.761 243.944H392.063V221.598H468.039V243.944H442.342V378.02H417.761V243.944ZM484.209 221.598H517.504L542.979 378.02H518.398L513.929 346.959V347.406H485.996L481.527 378.02H458.735L484.209 221.598ZM511.024 326.177L500.074 248.86H499.627L488.901 326.177H511.024ZM584.634 380.254C572.866 380.254 563.853 376.902 557.596 370.198C551.488 363.495 548.434 354.035 548.434 341.819V257.799C548.434 245.583 551.488 236.123 557.596 229.419C563.853 222.716 572.866 219.364 584.634 219.364C596.403 219.364 605.342 222.716 611.449 229.419C617.706 236.123 620.835 245.583 620.835 257.799V274.335H597.595V256.234C597.595 246.551 593.498 241.71 585.305 241.71C577.111 241.71 573.015 246.551 573.015 256.234V343.607C573.015 353.141 577.111 357.908 585.305 357.908C593.498 357.908 597.595 353.141 597.595 343.607V319.697H620.835V341.819C620.835 354.035 617.706 363.495 611.449 370.198C605.342 376.902 596.403 380.254 584.634 380.254ZM650.289 243.944H624.592V221.598H700.568V243.944H674.87V378.02H650.289V243.944ZM775.072 380.254C763.154 380.254 754.067 376.902 747.81 370.198C741.553 363.346 738.425 353.588 738.425 340.925V221.598H763.005V342.713C763.005 348.076 764.048 351.949 766.134 354.333C768.368 356.716 771.497 357.908 775.519 357.908C779.541 357.908 782.595 356.716 784.681 354.333C786.915 351.949 788.033 348.076 788.033 342.713V221.598H811.719V340.925C811.719 353.588 808.591 363.346 802.334 370.198C796.077 376.902 786.99 380.254 775.072 380.254ZM856.711 380.254C844.793 380.254 835.781 376.902 829.673 370.198C823.565 363.346 820.511 353.588 820.511 340.925V331.987H843.751V342.713C843.751 352.843 847.996 357.908 856.488 357.908C860.659 357.908 863.787 356.716 865.873 354.333C868.108 351.8 869.225 347.778 869.225 342.266C869.225 335.711 867.735 329.976 864.756 325.06C861.776 319.995 856.264 313.961 848.22 306.96C838.09 298.021 831.014 289.977 826.991 282.826C822.969 275.526 820.958 267.333 820.958 258.246C820.958 245.881 824.086 236.347 830.343 229.643C836.6 222.79 845.687 219.364 857.605 219.364C869.374 219.364 878.238 222.79 884.197 229.643C890.305 236.347 893.359 246.03 893.359 258.692V265.173H870.119V257.128C870.119 251.765 869.076 247.892 866.99 245.508C864.905 242.976 861.851 241.71 857.829 241.71C849.635 241.71 845.538 246.7 845.538 256.681C845.538 262.342 847.028 267.631 850.008 272.547C853.136 277.463 858.722 283.422 866.767 290.424C877.046 299.362 884.122 307.481 887.996 314.781C891.869 322.08 893.805 330.646 893.805 340.478C893.805 353.29 890.603 363.122 884.197 369.975C877.94 376.828 868.778 380.254 856.711 380.254ZM911.474 378.02H903.43V354.333H927.117V375.561L914.826 404.835H903.43L911.474 378.02ZM966.587 221.598H990.273L1001.22 341.819H1001.67L1013.29 221.598H1040.1L1051.72 341.819H1052.17L1063.12 221.598H1084.35L1068.48 378.02H1037.87L1026.7 272.547H1026.25L1015.08 378.02H982.452L966.587 221.598ZM1092.31 221.598H1159.35V243.944H1116.89V285.284H1150.64V307.63H1116.89V355.674H1159.35V378.02H1092.31V221.598ZM1177.07 245.285H1169.02V221.598H1192.71V242.827L1179.08 272.1H1167.68L1177.07 245.285ZM1206.67 221.598H1243.09C1255.76 221.598 1264.99 224.578 1270.8 230.537C1276.61 236.347 1279.52 245.359 1279.52 257.575V267.184C1279.52 283.422 1274.16 293.701 1263.43 298.021V298.468C1269.39 300.256 1273.56 303.906 1275.94 309.418C1278.48 314.93 1279.74 322.304 1279.74 331.54V359.026C1279.74 363.495 1279.89 367.145 1280.19 369.975C1280.49 372.657 1281.23 375.338 1282.42 378.02H1257.4C1256.5 375.487 1255.91 373.103 1255.61 370.869C1255.31 368.634 1255.16 364.612 1255.16 358.802V330.199C1255.16 323.049 1253.97 318.058 1251.59 315.228C1249.35 312.397 1245.4 310.982 1239.74 310.982H1231.25V378.02H1206.67V221.598ZM1240.19 288.636C1245.11 288.636 1248.76 287.37 1251.14 284.837C1253.67 282.305 1254.94 278.059 1254.94 272.1V260.033C1254.94 254.372 1253.89 250.276 1251.81 247.743C1249.87 245.21 1246.74 243.944 1242.42 243.944H1231.25V288.636H1240.19ZM1292.33 221.598H1359.36V243.944H1316.91V285.284H1350.65V307.63H1316.91V355.674H1359.36V378.02H1292.33V221.598ZM1393.87 221.598H1418.68L1434.77 342.936H1435.21L1451.3 221.598H1473.87L1450.19 378.02H1417.56L1393.87 221.598ZM1481.21 221.598H1548.25V243.944H1505.79V285.284H1539.53V307.63H1505.79V355.674H1548.25V378.02H1481.21V221.598ZM1557.92 221.598H1594.34C1607.01 221.598 1616.24 224.578 1622.05 230.537C1627.86 236.347 1630.77 245.359 1630.77 257.575V267.184C1630.77 283.422 1625.4 293.701 1614.68 298.021V298.468C1620.64 300.256 1624.81 303.906 1627.19 309.418C1629.72 314.93 1630.99 322.304 1630.99 331.54V359.026C1630.99 363.495 1631.14 367.145 1631.44 369.975C1631.74 372.657 1632.48 375.338 1633.67 378.02H1608.65C1607.75 375.487 1607.16 373.103 1606.86 370.869C1606.56 368.634 1606.41 364.612 1606.41 358.802V330.199C1606.41 323.049 1605.22 318.058 1602.84 315.228C1600.6 312.397 1596.65 310.982 1590.99 310.982H1582.5V378.02H1557.92V221.598ZM1591.44 288.636C1596.35 288.636 1600 287.37 1602.39 284.837C1604.92 282.305 1606.19 278.059 1606.19 272.1V260.033C1606.19 254.372 1605.14 250.276 1603.06 247.743C1601.12 245.21 1597.99 243.944 1593.67 243.944H1582.5V288.636H1591.44ZM1662.65 311.429L1632.93 221.598H1659.08L1675.84 279.027H1676.29L1693.04 221.598H1716.95L1687.23 311.429V378.02H1662.65V311.429Z" fill="white"/>
<rect x="1761.24" y="369.207" width="796.135" height="174.166" rx="26.3485" transform="rotate(-5.28238 1761.24 369.207)" fill="#D68F2D"/>
<g filter="url(#filter1_d_2215_370)">
<rect x="1786.57" y="67.5156" width="567.333" height="199.013" rx="11.2121" transform="rotate(8.16569 1786.57 67.5156)" fill="#E6DCCE"/>
</g>
<path d="M1804.43 225.952L1820 117.552L1860.65 123.388C1868.97 124.583 1875.75 127.033 1880.98 130.737C1886.25 134.446 1889.95 139.12 1892.1 144.758C1894.28 150.365 1894.88 156.627 1893.88 163.543C1892.89 170.495 1890.54 176.316 1886.84 181.007C1883.18 185.668 1878.29 188.982 1872.18 190.949C1866.06 192.88 1858.84 193.248 1850.52 192.053L1821.56 187.896L1823.9 171.594L1850.21 175.37C1855.08 176.069 1859.16 175.971 1862.46 175.076C1865.76 174.146 1868.34 172.482 1870.2 170.083C1872.1 167.654 1873.32 164.517 1873.88 160.671C1874.43 156.825 1874.14 153.434 1873.01 150.499C1871.89 147.529 1869.88 145.115 1866.98 143.258C1864.08 141.365 1860.18 140.067 1855.27 139.363L1837.28 136.779L1824.07 228.771L1804.43 225.952ZM1867.48 184.873L1887.27 237.845L1865.35 234.699L1846.05 181.795L1867.48 184.873ZM1916.23 243.678C1911.08 242.938 1906.57 241.354 1902.71 238.927C1898.88 236.469 1896.03 233.251 1894.15 229.272C1892.31 225.298 1891.77 220.646 1892.54 215.318C1893.2 210.731 1894.59 207.059 1896.71 204.303C1898.84 201.547 1901.49 199.479 1904.68 198.1C1907.87 196.721 1911.36 195.836 1915.16 195.445C1919 195.025 1922.93 194.886 1926.95 195.03C1931.78 195.22 1935.71 195.334 1938.73 195.371C1941.75 195.373 1944 195.047 1945.46 194.393C1946.96 193.708 1947.84 192.448 1948.11 190.613L1948.15 190.296C1948.73 186.309 1947.99 183.051 1945.94 180.524C1943.89 177.997 1940.64 176.414 1936.19 175.776C1931.5 175.102 1927.63 175.591 1924.58 177.242C1921.57 178.899 1919.39 181.053 1918.04 183.703L1900.51 178.594C1902.63 173.857 1905.55 170.063 1909.28 167.212C1913 164.326 1917.33 162.39 1922.26 161.406C1927.2 160.386 1932.51 160.283 1938.19 161.099C1942.11 161.661 1945.94 162.68 1949.69 164.155C1953.44 165.629 1956.77 167.656 1959.68 170.234C1962.59 172.777 1964.76 175.987 1966.18 179.865C1967.64 183.748 1967.98 188.389 1967.21 193.788L1959.4 248.2L1940.98 245.555L1942.58 234.387L1941.94 234.296C1940.46 236.387 1938.51 238.269 1936.11 239.941C1933.75 241.583 1930.89 242.775 1927.55 243.519C1924.24 244.233 1920.47 244.286 1916.23 243.678ZM1923.23 230.313C1927.08 230.865 1930.52 230.585 1933.56 229.473C1936.61 228.326 1939.07 226.591 1940.95 224.268C1942.87 221.95 1944.04 219.291 1944.47 216.292L1945.85 206.712C1945.18 207.12 1944.09 207.431 1942.58 207.647C1941.11 207.868 1939.47 208.011 1937.66 208.075C1935.85 208.139 1934.06 208.171 1932.3 208.169C1930.53 208.168 1929 208.165 1927.71 208.159C1924.79 208.136 1922.14 208.404 1919.76 208.962C1917.37 209.52 1915.41 210.499 1913.88 211.9C1912.35 213.265 1911.41 215.183 1911.06 217.653C1910.55 221.181 1911.46 224.03 1913.77 226.2C1916.09 228.369 1919.24 229.74 1923.23 230.313ZM2001.17 255.656C1994.79 254.739 1989.31 252.278 1984.73 248.272C1980.16 244.266 1976.85 238.93 1974.82 232.263C1972.79 225.597 1972.41 217.8 1973.7 208.873C1974.99 199.839 1977.57 192.43 1981.42 186.645C1985.32 180.83 1990.04 176.7 1995.57 174.253C2001.12 171.772 2007.01 170.979 2013.26 171.876C2018.02 172.56 2021.82 173.934 2024.66 175.998C2027.5 178.026 2029.66 180.299 2031.13 182.816C2032.61 185.297 2033.71 187.597 2034.41 189.715L2035.2 189.829L2041.03 149.284L2060.24 152.043L2044.68 260.443L2025.83 257.738L2027.67 244.929L2026.51 244.762C2025.24 246.596 2023.51 248.49 2021.32 250.445C2019.13 252.364 2016.39 253.88 2013.1 254.992C2009.81 256.104 2005.83 256.325 2001.17 255.656ZM2008.78 240.704C2012.83 241.286 2016.45 240.689 2019.62 238.911C2022.8 237.099 2025.41 234.323 2027.46 230.583C2029.51 226.844 2030.91 222.346 2031.67 217.088C2032.42 211.83 2032.34 207.154 2031.41 203.06C2030.52 198.971 2028.81 195.645 2026.26 193.082C2023.74 190.524 2020.42 188.949 2016.29 188.356C2012.02 187.743 2008.3 188.343 2005.12 190.156C2001.94 191.968 1999.35 194.729 1997.34 198.438C1995.33 202.147 1993.97 206.525 1993.24 211.571C1992.51 216.652 1992.58 221.29 1993.46 225.485C1994.37 229.65 1996.1 233.085 1998.62 235.789C2001.19 238.463 2004.58 240.101 2008.78 240.704ZM2057.64 262.305L2069.31 181.004L2088.47 183.755L2076.8 265.055L2057.64 262.305ZM2080.6 170.849C2077.57 170.413 2075.1 169.032 2073.2 166.707C2071.31 164.346 2070.57 161.737 2070.98 158.879C2071.39 155.985 2072.84 153.69 2075.31 151.992C2077.8 150.26 2080.55 149.611 2083.59 150.047C2086.66 150.488 2089.12 151.886 2090.98 154.242C2092.88 156.567 2093.62 159.177 2093.21 162.07C2092.8 164.928 2091.35 167.224 2088.87 168.956C2086.43 170.659 2083.67 171.289 2080.6 170.849ZM2112.21 271.814C2107.06 271.074 2102.55 269.491 2098.69 267.063C2094.86 264.605 2092.01 261.387 2090.13 257.408C2088.29 253.434 2087.75 248.783 2088.52 243.454C2089.18 238.867 2090.57 235.195 2092.69 232.439C2094.82 229.683 2097.47 227.615 2100.66 226.236C2103.85 224.857 2107.34 223.972 2111.14 223.582C2114.98 223.161 2118.91 223.022 2122.92 223.166C2127.76 223.356 2131.69 223.47 2134.7 223.507C2137.73 223.509 2139.97 223.183 2141.44 222.529C2142.94 221.844 2143.82 220.585 2144.09 218.75L2144.13 218.432C2144.7 214.445 2143.96 211.187 2141.91 208.66C2139.86 206.133 2136.62 204.55 2132.17 203.912C2127.48 203.238 2123.61 203.727 2120.56 205.378C2117.55 207.035 2115.37 209.189 2114.02 211.84L2096.49 206.73C2098.61 201.993 2101.53 198.199 2105.25 195.348C2108.98 192.462 2113.31 190.526 2118.24 189.542C2123.18 188.522 2128.49 188.42 2134.17 189.235C2138.09 189.797 2141.92 190.816 2145.67 192.291C2149.42 193.765 2152.75 195.792 2155.65 198.37C2158.57 200.913 2160.73 204.123 2162.16 208.001C2163.62 211.884 2163.96 216.525 2163.19 221.924L2155.37 276.336L2136.95 273.691L2138.56 262.523L2137.92 262.432C2136.43 264.523 2134.49 266.405 2132.09 268.077C2129.73 269.719 2126.87 270.912 2123.52 271.655C2120.22 272.369 2116.45 272.422 2112.21 271.814ZM2119.21 258.449C2123.05 259.001 2126.5 258.721 2129.54 257.609C2132.58 256.462 2135.05 254.727 2136.93 252.404C2138.85 250.086 2140.02 247.428 2140.45 244.428L2141.83 234.848C2141.16 235.256 2140.07 235.568 2138.56 235.783C2137.09 236.004 2135.45 236.147 2133.64 236.211C2131.83 236.275 2130.04 236.307 2128.28 236.306C2126.51 236.304 2124.98 236.301 2123.69 236.295C2120.77 236.273 2118.12 236.54 2115.74 237.098C2113.35 237.656 2111.39 238.636 2109.86 240.036C2108.33 241.401 2107.39 243.319 2107.03 245.789C2106.53 249.318 2107.43 252.167 2109.75 254.336C2112.07 256.505 2115.22 257.876 2119.21 258.449ZM2193.19 233.146L2186.35 280.783L2167.19 278.032L2178.86 196.732L2197.17 199.361L2195.19 213.176L2196.14 213.312C2198.67 209.029 2202.17 205.84 2206.65 203.746C2211.16 201.657 2216.45 201.048 2222.52 201.919C2228.13 202.725 2232.85 204.626 2236.66 207.624C2240.52 210.626 2243.27 214.568 2244.91 219.449C2246.58 224.335 2246.94 230.022 2245.97 236.51L2238.54 288.275L2219.38 285.525L2226.38 236.723C2227.16 231.289 2226.36 226.834 2223.98 223.359C2221.63 219.889 2217.99 217.799 2213.05 217.09C2209.7 216.609 2206.61 216.922 2203.78 218.029C2201 219.106 2198.67 220.914 2196.79 223.454C2194.95 225.998 2193.75 229.229 2193.19 233.146ZM2302.83 214.53L2300.7 229.35L2253.97 222.641L2256.09 207.82L2302.83 214.53ZM2270.43 189.999L2289.59 192.749L2278.63 269.074C2278.26 271.65 2278.37 273.682 2278.95 275.17C2279.57 276.627 2280.49 277.696 2281.73 278.378C2282.96 279.059 2284.37 279.514 2285.96 279.742C2287.16 279.914 2288.27 279.983 2289.28 279.949C2290.33 279.919 2291.13 279.872 2291.68 279.807L2292.76 295.249C2291.68 295.455 2290.16 295.633 2288.2 295.783C2286.26 295.938 2283.94 295.856 2281.21 295.536C2276.39 294.988 2272.17 293.644 2268.55 291.504C2264.94 289.329 2262.25 286.385 2260.47 282.674C2258.74 278.967 2258.25 274.575 2259.02 269.499L2270.43 189.999Z" fill="#18140E"/>
<path d="M1865.09 501.137C1858.16 501.777 1852.07 501.067 1846.82 499.007C1841.61 496.944 1837.46 493.866 1834.36 489.775C1831.27 485.649 1829.46 480.828 1828.95 475.309C1828.57 471.104 1829.1 467.288 1830.54 463.862C1831.99 460.403 1834.15 457.133 1837.02 454.051C1839.89 450.969 1843.25 447.825 1847.09 444.62L1862.66 431.321C1865.31 429.209 1867.34 427.054 1868.73 424.855C1870.12 422.623 1870.67 419.976 1870.39 416.914C1870.16 414.491 1868.91 412.266 1866.61 410.238C1864.32 408.21 1861.43 407.358 1857.93 407.681C1855.51 407.905 1853.42 408.692 1851.68 410.04C1849.97 411.386 1848.68 413.032 1847.81 414.979C1846.97 416.889 1846.64 418.854 1846.83 420.873C1847.05 423.228 1847.91 425.541 1849.4 427.812C1850.94 430.079 1852.85 432.397 1855.14 434.764C1857.42 437.098 1859.82 439.524 1862.33 442.041L1915.63 494.99L1898.57 496.567L1854.53 453.552C1850.84 449.923 1847.4 446.508 1844.22 443.307C1841.04 440.072 1838.39 436.754 1836.27 433.352C1834.19 429.913 1832.96 426.108 1832.57 421.936C1832.13 417.191 1832.82 412.886 1834.64 409.019C1836.48 405.116 1839.26 401.941 1842.97 399.494C1846.68 397.048 1851.16 395.582 1856.41 395.097C1861.72 394.605 1866.38 395.227 1870.38 396.962C1874.4 398.66 1877.6 401.13 1879.97 404.372C1882.37 407.578 1883.75 411.199 1884.13 415.237C1884.58 420.149 1883.75 424.603 1881.65 428.599C1879.57 432.557 1876.54 436.299 1872.55 439.823L1853.22 457.032C1849.46 460.367 1846.92 463.553 1845.61 466.593C1844.32 469.596 1843.76 471.905 1843.91 473.52C1844.18 476.481 1845.19 479.154 1846.94 481.537C1848.72 483.918 1851.06 485.737 1853.96 486.997C1856.89 488.253 1860.22 488.708 1863.96 488.363C1867.79 488.008 1871.45 486.839 1874.93 484.854C1878.45 482.833 1881.54 480.121 1884.21 476.718C1886.92 473.312 1888.94 469.341 1890.29 464.806C1891.63 460.27 1892.05 455.293 1891.55 449.876L1905.18 448.617C1905.8 455.279 1905.56 460.985 1904.47 465.734C1903.38 470.45 1901.89 474.355 1900.01 477.447C1898.15 480.503 1896.36 482.926 1894.62 484.715C1894.06 485.309 1893.54 485.9 1893.05 486.488C1892.57 487.077 1892.04 487.668 1891.49 488.262C1888.31 492.118 1884.32 495.118 1879.49 497.26C1874.7 499.4 1869.9 500.692 1865.09 501.137ZM1980.58 410.803L1981.7 422.916L1937.89 426.964L1936.77 414.851L1980.58 410.803ZM1955.95 491.264L1947.95 404.757C1947.5 399.912 1948.19 395.794 1950.02 392.401C1951.84 388.975 1954.43 386.31 1957.78 384.405C1961.13 382.467 1964.86 381.308 1968.96 380.928C1971.99 380.648 1974.6 380.661 1976.8 380.967C1979 381.239 1980.64 381.529 1981.72 381.836L1979.32 394.377C1978.59 394.24 1977.66 394.088 1976.52 393.922C1975.39 393.722 1974.03 393.695 1972.44 393.841C1968.78 394.18 1966.24 395.331 1964.82 397.294C1963.44 399.254 1962.91 401.95 1963.23 405.382L1971.04 489.869L1955.95 491.264ZM2042.34 450.855L2038.15 405.482L2053.29 404.083L2060.46 481.606L2045.62 482.977L2044.38 469.552L2043.57 469.626C2042.17 473.93 2039.63 477.643 2035.95 480.766C2032.29 483.852 2027.56 485.664 2021.74 486.202C2016.76 486.662 2012.25 485.976 2008.21 484.143C2004.2 482.274 2000.91 479.27 1998.32 475.132C1995.76 470.99 1994.19 465.723 1993.6 459.33L1989.04 410.021L2004.13 408.626L2008.52 456.119C2009.01 461.401 2010.86 465.472 2014.08 468.33C2017.3 471.189 2021.24 472.402 2025.92 471.97C2028.75 471.709 2031.49 470.743 2034.15 469.071C2036.85 467.397 2038.99 465.044 2040.57 462.013C2042.19 458.979 2042.78 455.26 2042.34 450.855ZM2084.46 432.965L2088.72 478.994L2073.63 480.388L2066.46 402.866L2080.95 401.527L2082.11 414.145L2083.07 414.056C2084.48 409.786 2086.96 406.231 2090.54 403.39C2094.14 400.545 2098.85 398.854 2104.68 398.316C2109.96 397.828 2114.69 398.511 2118.86 400.365C2123.04 402.185 2126.42 405.164 2129 409.302C2131.59 413.441 2133.18 418.706 2133.77 425.099L2138.33 474.409L2123.24 475.803L2118.85 428.311C2118.33 422.692 2116.46 418.436 2113.24 415.544C2110.02 412.618 2105.85 411.391 2100.74 411.864C2097.24 412.187 2094.19 413.232 2091.61 414.998C2089.06 416.761 2087.13 419.179 2085.81 422.252C2084.53 425.289 2084.08 428.86 2084.46 432.965ZM2234.64 406.411L2221.19 410.098C2220.46 408.401 2219.39 406.819 2218 405.353C2216.65 403.884 2214.88 402.741 2212.7 401.924C2210.52 401.107 2207.86 400.844 2204.74 401.133C2200.46 401.528 2196.98 402.816 2194.3 404.998C2191.62 407.147 2190.41 409.719 2190.69 412.713C2190.93 415.304 2192.08 417.301 2194.14 418.706C2196.21 420.11 2199.42 421.119 2203.79 421.734L2216.36 423.422C2223.65 424.411 2229.2 426.46 2233.02 429.569C2236.83 432.678 2239 436.974 2239.5 442.459C2239.93 447.102 2238.97 451.365 2236.61 455.247C2234.29 459.093 2230.83 462.263 2226.24 464.757C2221.69 467.248 2216.28 468.783 2210.02 469.361C2201.34 470.163 2194.09 468.967 2188.26 465.773C2182.43 462.545 2178.58 457.557 2176.7 450.808L2191.08 447.239C2192.34 450.957 2194.47 453.662 2197.48 455.352C2200.48 457.009 2204.26 457.627 2208.8 457.207C2213.74 456.75 2217.6 455.358 2220.37 453.032C2223.14 450.673 2224.39 447.995 2224.11 445.001C2223.89 442.578 2222.79 440.627 2220.82 439.146C2218.89 437.662 2216.03 436.67 2212.25 436.171L2198.86 434.507C2191.47 433.527 2185.88 431.397 2182.08 428.117C2178.32 424.834 2176.18 420.433 2175.67 414.915C2175.25 410.339 2176.16 406.217 2178.4 402.549C2180.64 398.881 2183.92 395.879 2188.25 393.545C2192.58 391.176 2197.66 389.723 2203.48 389.185C2211.86 388.411 2218.62 389.619 2223.77 392.808C2228.91 395.963 2232.54 400.498 2234.64 406.411ZM2261.9 416.567L2266.15 462.596L2251.06 463.991L2241.51 360.627L2256.4 359.251L2259.95 397.71L2260.91 397.621C2262.34 393.281 2264.81 389.71 2268.32 386.909C2271.83 384.108 2276.59 382.429 2282.61 381.872C2287.93 381.381 2292.67 382.045 2296.85 383.865C2301.05 385.682 2304.45 388.66 2307.04 392.798C2309.66 396.9 2311.26 402.181 2311.86 408.641L2316.42 457.951L2301.33 459.345L2296.94 411.853C2296.41 406.166 2294.54 401.894 2291.33 399.035C2288.11 396.143 2283.89 394.938 2278.67 395.42C2275.11 395.749 2271.98 396.802 2269.29 398.577C2266.64 400.349 2264.64 402.774 2263.3 405.85C2261.98 408.89 2261.52 412.462 2261.9 416.567ZM2375.59 420.058L2371.39 374.685L2386.53 373.286L2393.7 450.809L2378.86 452.18L2377.62 438.755L2376.81 438.83C2375.41 443.133 2372.87 446.846 2369.19 449.969C2365.54 453.055 2360.8 454.867 2354.98 455.405C2350 455.865 2345.49 455.179 2341.45 453.346C2337.45 451.477 2334.15 448.473 2331.56 444.335C2329.01 440.194 2327.43 434.926 2326.84 428.533L2322.29 379.224L2337.38 377.829L2341.77 425.322C2342.25 430.604 2344.11 434.675 2347.32 437.534C2350.54 440.392 2354.49 441.606 2359.16 441.173C2361.99 440.912 2364.73 439.946 2367.4 438.275C2370.09 436.6 2372.23 434.248 2373.82 431.217C2375.44 428.182 2376.03 424.463 2375.59 420.058ZM2417.71 402.168L2421.96 448.197L2406.87 449.592L2399.71 372.069L2414.19 370.73L2415.36 383.348L2416.32 383.259C2417.72 378.99 2420.21 375.434 2423.78 372.593C2427.38 369.749 2432.1 368.057 2437.92 367.52C2443.2 367.031 2447.93 367.714 2452.11 369.568C2456.28 371.388 2459.66 374.367 2462.25 378.506C2464.84 382.644 2466.42 387.91 2467.02 394.303L2471.57 443.612L2456.48 445.007L2452.09 397.514C2451.57 391.895 2449.7 387.639 2446.48 384.747C2443.26 381.821 2439.09 380.594 2433.98 381.067C2430.48 381.391 2427.44 382.435 2424.85 384.201C2422.3 385.964 2420.37 388.382 2419.06 391.456C2417.78 394.492 2417.33 398.063 2417.71 402.168Z" fill="#18140E"/>
</g>
</g>
<defs>
<filter id="filter0_d_2215_370" x="83.7576" y="-159" width="3349.06" height="944.622" filterUnits="userSpaceOnUse" color-interpolation-filters="sRGB">
<feFlood flood-opacity="0" result="BackgroundImageFix"/>
<feColorMatrix in="SourceAlpha" type="matrix" values="0 0 0 0 0 0 0 0 0 0 0 0 0 0 0 0 0 0 127 0" result="hardAlpha"/>
<feOffset dy="2.24242"/>
<feGaussianBlur stdDeviation="1.12121"/>
<feComposite in2="hardAlpha" operator="out"/>
<feColorMatrix type="matrix" values="0 0 0 0 0 0 0 0 0 0 0 0 0 0 0 0 0 0 0.25 0"/>
<feBlend mode="normal" in2="BackgroundImageFix" result="effect1_dropShadow_2215_370"/>
<feBlend mode="normal" in="SourceGraphic" in2="effect1_dropShadow_2215_370" result="shape"/>
</filter>
<filter id="filter1_d_2215_370" x="1759.91" y="69.125" width="603.447" height="296.219" filterUnits="userSpaceOnUse" color-interpolation-filters="sRGB">
<feFlood flood-opacity="0" result="BackgroundImageFix"/>
<feColorMatrix in="SourceAlpha" type="matrix" values="0 0 0 0 0 0 0 0 0 0 0 0 0 0 0 0 0 0 127 0" result="hardAlpha"/>
<feOffset dx="16.8182" dy="21.8636"/>
<feComposite in2="hardAlpha" operator="out"/>
<feColorMatrix type="matrix" values="0 0 0 0 0 0 0 0 0 0 0 0 0 0 0 0 0 0 0.25 0"/>
<feBlend mode="normal" in2="BackgroundImageFix" result="effect1_dropShadow_2215_370"/>
<feBlend mode="normal" in="SourceGraphic" in2="effect1_dropShadow_2215_370" result="shape"/>
</filter>
<clipPath id="clip0_2215_370">
<rect width="7680" height="1320" fill="white"/>
</clipPath>
</defs>
</svg>
